<svg xmlns="http://www.w3.org/2000/svg" viewBox="0 0 500 500"><g id="freepik--background-complete--inject-532"><path d="M457.1,410.15c0-.14.44-.26,1-.26l-.26.26h0V410l0-.18a2.4,2.4,0,0,1,.05-.32c0-.18.11-.3.19-.3s.13.12.18.3,0,.2.06.32v.36h0c-.12.12.26-.26-.26.27C457.54,410.42,457.1,410.3,457.1,410.15Z" style="fill:#e0e0e0"></path><path d="M453.13,410.15c0-.14.45-.26,1-.26s1,.12,1,.26-.44.27-1,.27S453.13,410.3,453.13,410.15Z" style="fill:#e0e0e0"></path><path d="M449.17,410.15c0-.14.44-.26,1-.26s1,.12,1,.26-.44.27-1,.27S449.17,410.3,449.17,410.15Z" style="fill:#e0e0e0"></path><path d="M445.2,410.15c0-.14.45-.26,1-.26s1,.12,1,.26-.45.27-1,.27S445.2,410.3,445.2,410.15Z" style="fill:#e0e0e0"></path><path d="M441.24,410.15c0-.14.44-.26,1-.26s1,.12,1,.26-.44.27-1,.27S441.24,410.3,441.24,410.15Z" style="fill:#e0e0e0"></path><path d="M437.28,410.15c0-.14.44-.26,1-.26s1,.12,1,.26-.45.27-1,.27S437.28,410.3,437.28,410.15Z" style="fill:#e0e0e0"></path><path d="M433.31,410.15c0-.14.45-.26,1-.26s1,.12,1,.26-.44.27-1,.27S433.31,410.3,433.31,410.15Z" style="fill:#e0e0e0"></path><path d="M429.35,410.15c0-.14.44-.26,1-.26s1,.12,1,.26-.44.27-1,.27S429.35,410.3,429.35,410.15Z" style="fill:#e0e0e0"></path><path d="M425.38,410.15c0-.14.45-.26,1-.26s1,.12,1,.26-.45.27-1,.27S425.38,410.3,425.38,410.15Z" style="fill:#e0e0e0"></path><path d="M421.42,410.15c0-.14.44-.26,1-.26s1,.12,1,.26-.44.27-1,.27S421.42,410.3,421.42,410.15Z" style="fill:#e0e0e0"></path><path d="M417.46,410.15c0-.14.44-.26,1-.26s1,.12,1,.26-.45.27-1,.27S417.46,410.3,417.46,410.15Z" style="fill:#e0e0e0"></path><path d="M413.49,410.15c0-.14.44-.26,1-.26s1,.12,1,.26-.44.27-1,.27S413.49,410.3,413.49,410.15Z" style="fill:#e0e0e0"></path><path d="M409.53,410.15c0-.14.44-.26,1-.26s1,.12,1,.26-.44.27-1,.27S409.53,410.3,409.53,410.15Z" style="fill:#e0e0e0"></path><path d="M405.56,410.15c0-.14.45-.26,1-.26s1,.12,1,.26-.44.27-1,.27S405.56,410.3,405.56,410.15Z" style="fill:#e0e0e0"></path><path d="M401.6,410.15c0-.14.44-.26,1-.26s1,.12,1,.26-.44.27-1,.27S401.6,410.3,401.6,410.15Z" style="fill:#e0e0e0"></path><path d="M397.63,410.15c0-.14.45-.26,1-.26s1,.12,1,.26-.45.27-1,.27S397.63,410.3,397.63,410.15Z" style="fill:#e0e0e0"></path><path d="M393.67,410.15c0-.14.44-.26,1-.26s1,.12,1,.26-.44.27-1,.27S393.67,410.3,393.67,410.15Z" style="fill:#e0e0e0"></path><path d="M389.71,410.15c0-.14.44-.26,1-.26s1,.12,1,.26-.45.27-1,.27S389.71,410.3,389.71,410.15Z" style="fill:#e0e0e0"></path><path d="M385.74,410.15c0-.14.45-.26,1-.26s1,.12,1,.26-.44.27-1,.27S385.74,410.3,385.74,410.15Z" style="fill:#e0e0e0"></path><path d="M381.78,410.15c0-.14.44-.26,1-.26s1,.12,1,.26-.44.27-1,.27S381.78,410.3,381.78,410.15Z" style="fill:#e0e0e0"></path><path d="M377.81,410.15c0-.14.45-.26,1-.26s1,.12,1,.26-.45.27-1,.27S377.81,410.3,377.81,410.15Z" style="fill:#e0e0e0"></path><path d="M373.85,410.15c0-.14.44-.26,1-.26s1,.12,1,.26-.44.27-1,.27S373.85,410.3,373.85,410.15Z" style="fill:#e0e0e0"></path><path d="M369.89,410.15c0-.14.44-.26,1-.26s1,.12,1,.26-.45.27-1,.27S369.89,410.3,369.89,410.15Z" style="fill:#e0e0e0"></path><path d="M365.92,410.15c0-.14.45-.26,1-.26s1,.12,1,.26-.44.27-1,.27S365.92,410.3,365.92,410.15Z" style="fill:#e0e0e0"></path><path d="M362,410.15c0-.14.44-.26,1-.26s1,.12,1,.26-.44.27-1,.27S362,410.3,362,410.15Z" style="fill:#e0e0e0"></path><path d="M358,410.15c0-.14.45-.26,1-.26s1,.12,1,.26-.45.27-1,.27S358,410.3,358,410.15Z" style="fill:#e0e0e0"></path><path d="M354,410.15c0-.14.44-.26,1-.26s1,.12,1,.26-.44.27-1,.27S354,410.3,354,410.15Z" style="fill:#e0e0e0"></path><path d="M350.07,410.15c0-.14.44-.26,1-.26s1,.12,1,.26-.45.27-1,.27S350.07,410.3,350.07,410.15Z" style="fill:#e0e0e0"></path><path d="M346.1,410.15c0-.14.45-.26,1-.26s1,.12,1,.26-.44.27-1,.27S346.1,410.3,346.1,410.15Z" style="fill:#e0e0e0"></path><path d="M342.14,410.15c0-.14.44-.26,1-.26s1,.12,1,.26-.44.27-1,.27S342.14,410.3,342.14,410.15Z" style="fill:#e0e0e0"></path><path d="M338.17,410.15c0-.14.45-.26,1-.26s1,.12,1,.26-.45.27-1,.27S338.17,410.3,338.17,410.15Z" style="fill:#e0e0e0"></path><path d="M334.21,410.15c0-.14.44-.26,1-.26s1,.12,1,.26-.44.27-1,.27S334.21,410.3,334.21,410.15Z" style="fill:#e0e0e0"></path><ellipse cx="331.24" cy="410.15" rx="0.99" ry="0.26" style="fill:#e0e0e0"></ellipse><path d="M326.28,410.15c0-.14.44-.26,1-.26s1,.12,1,.26-.44.27-1,.27S326.28,410.3,326.28,410.15Z" style="fill:#e0e0e0"></path><ellipse cx="323.31" cy="410.15" rx="0.99" ry="0.26" style="fill:#e0e0e0"></ellipse><ellipse cx="319.34" cy="410.15" rx="0.99" ry="0.26" style="fill:#e0e0e0"></ellipse><path d="M315.37,409.15c.14,0,.26.45.26,1l-.26-.26h.39l.32.06c.18,0,.29.11.29.18s-.11.14-.29.19l-.32.05-.19,0h-.2c-.12-.12.26.26-.26-.27C315.11,409.6,315.23,409.15,315.37,409.15Z" style="fill:#e0e0e0"></path><path d="M315.37,405.1c.14,0,.26.45.26,1s-.12,1-.26,1-.26-.46-.26-1S315.23,405.1,315.37,405.1Z" style="fill:#e0e0e0"></path><path d="M315.37,401c.14,0,.26.46.26,1s-.12,1-.26,1-.26-.45-.26-1S315.23,401,315.37,401Z" style="fill:#e0e0e0"></path><path d="M315.37,397c.14,0,.26.45.26,1s-.12,1-.26,1-.26-.46-.26-1S315.23,397,315.37,397Z" style="fill:#e0e0e0"></path><path d="M315.37,392.93c.14,0,.26.46.26,1s-.12,1-.26,1-.26-.45-.26-1S315.23,392.93,315.37,392.93Z" style="fill:#e0e0e0"></path><path d="M315.37,388.88c.14,0,.26.45.26,1s-.12,1-.26,1-.26-.45-.26-1S315.23,388.88,315.37,388.88Z" style="fill:#e0e0e0"></path><path d="M315.37,384.82c.14,0,.26.45.26,1s-.12,1-.26,1-.26-.45-.26-1S315.23,384.82,315.37,384.82Z" style="fill:#e0e0e0"></path><path d="M315.37,380.77c.14,0,.26.45.26,1s-.12,1-.26,1-.26-.45-.26-1S315.23,380.77,315.37,380.77Z" style="fill:#e0e0e0"></path><path d="M315.37,376.71c.14,0,.26.45.26,1s-.12,1-.26,1-.26-.46-.26-1S315.23,376.71,315.37,376.71Z" style="fill:#e0e0e0"></path><path d="M315.37,372.65c.14,0,.26.46.26,1s-.12,1-.26,1-.26-.45-.26-1S315.23,372.65,315.37,372.65Z" style="fill:#e0e0e0"></path><path d="M315.37,368.6c.14,0,.26.45.26,1s-.12,1-.26,1-.26-.46-.26-1S315.23,368.6,315.37,368.6Z" style="fill:#e0e0e0"></path><path d="M315.37,364.54c.14,0,.26.46.26,1s-.12,1-.26,1-.26-.45-.26-1S315.23,364.54,315.37,364.54Z" style="fill:#e0e0e0"></path><path d="M315.37,360.49c.14,0,.26.45.26,1s-.12,1-.26,1-.26-.46-.26-1S315.23,360.49,315.37,360.49Z" style="fill:#e0e0e0"></path><path d="M315.37,356.43c.14,0,.26.46.26,1s-.12,1-.26,1-.26-.45-.26-1S315.23,356.43,315.37,356.43Z" style="fill:#e0e0e0"></path><path d="M315.37,352.38c.14,0,.26.45.26,1s-.12,1-.26,1-.26-.45-.26-1S315.23,352.38,315.37,352.38Z" style="fill:#e0e0e0"></path><path d="M315.37,348.32c.14,0,.26.45.26,1s-.12,1-.26,1-.26-.46-.26-1S315.23,348.32,315.37,348.32Z" style="fill:#e0e0e0"></path><path d="M315.37,344.26c.14,0,.26.46.26,1s-.12,1-.26,1-.26-.45-.26-1S315.23,344.26,315.37,344.26Z" style="fill:#e0e0e0"></path><path d="M315.37,340.21c.14,0,.26.45.26,1s-.12,1-.26,1-.26-.46-.26-1S315.23,340.21,315.37,340.21Z" style="fill:#e0e0e0"></path><path d="M315.37,336.15c.14,0,.26.46.26,1s-.12,1-.26,1-.26-.45-.26-1S315.23,336.15,315.37,336.15Z" style="fill:#e0e0e0"></path><path d="M315.37,332.1c.14,0,.26.45.26,1s-.12,1-.26,1-.26-.46-.26-1S315.23,332.1,315.37,332.1Z" style="fill:#e0e0e0"></path><path d="M316.37,329.07c0,.14-.45.26-1,.26l.26-.26h0v.19l0,.19a1.4,1.4,0,0,1-.06.32c0,.18-.11.29-.18.29s-.14-.11-.18-.29a1.4,1.4,0,0,1-.06-.32v-.38h0l.26-.26C315.92,328.81,316.37,328.93,316.37,329.07Z" style="fill:#e0e0e0"></path><ellipse cx="319.34" cy="329.07" rx="0.99" ry="0.26" style="fill:#e0e0e0"></ellipse><path d="M324.3,329.07c0,.14-.44.26-1,.26s-1-.12-1-.26.44-.26,1-.26S324.3,328.93,324.3,329.07Z" style="fill:#e0e0e0"></path><ellipse cx="327.27" cy="329.07" rx="0.99" ry="0.26" style="fill:#e0e0e0"></ellipse><ellipse cx="331.24" cy="329.07" rx="0.99" ry="0.26" style="fill:#e0e0e0"></ellipse><ellipse cx="335.2" cy="329.07" rx="0.99" ry="0.26" style="fill:#e0e0e0"></ellipse><ellipse cx="339.16" cy="329.07" rx="0.99" ry="0.26" style="fill:#e0e0e0"></ellipse><ellipse cx="343.13" cy="329.07" rx="0.99" ry="0.26" style="fill:#e0e0e0"></ellipse><ellipse cx="347.09" cy="329.07" rx="0.99" ry="0.26" style="fill:#e0e0e0"></ellipse><ellipse cx="351.06" cy="329.07" rx="0.99" ry="0.26" style="fill:#e0e0e0"></ellipse><ellipse cx="355.02" cy="329.07" rx="0.99" ry="0.26" style="fill:#e0e0e0"></ellipse><path d="M360,329.07c0,.14-.45.26-1,.26s-1-.12-1-.26.45-.26,1-.26S360,328.93,360,329.07Z" style="fill:#e0e0e0"></path><ellipse cx="362.95" cy="329.07" rx="0.99" ry="0.26" style="fill:#e0e0e0"></ellipse><ellipse cx="366.91" cy="329.07" rx="0.99" ry="0.26" style="fill:#e0e0e0"></ellipse><path d="M371.87,329.07c0,.14-.45.26-1,.26s-1-.12-1-.26.44-.26,1-.26S371.87,328.93,371.87,329.07Z" style="fill:#e0e0e0"></path><ellipse cx="374.84" cy="329.07" rx="0.99" ry="0.26" style="fill:#e0e0e0"></ellipse><path d="M379.8,329.07c0,.14-.45.26-1,.26s-1-.12-1-.26.45-.26,1-.26S379.8,328.93,379.8,329.07Z" style="fill:#e0e0e0"></path><ellipse cx="382.77" cy="329.07" rx="0.99" ry="0.26" style="fill:#e0e0e0"></ellipse><ellipse cx="386.73" cy="329.07" rx="0.99" ry="0.26" style="fill:#e0e0e0"></ellipse><path d="M391.69,329.07c0,.14-.45.26-1,.26s-1-.12-1-.26.44-.26,1-.26S391.69,328.93,391.69,329.07Z" style="fill:#e0e0e0"></path><ellipse cx="394.66" cy="329.07" rx="0.99" ry="0.26" style="fill:#e0e0e0"></ellipse><path d="M399.62,329.07c0,.14-.45.26-1,.26s-1-.12-1-.26.45-.26,1-.26S399.62,328.93,399.62,329.07Z" style="fill:#e0e0e0"></path><path d="M403.58,329.07c0,.14-.44.26-1,.26s-1-.12-1-.26.44-.26,1-.26S403.58,328.93,403.58,329.07Z" style="fill:#e0e0e0"></path><ellipse cx="406.55" cy="329.07" rx="0.99" ry="0.26" style="fill:#e0e0e0"></ellipse><path d="M411.51,329.07c0,.14-.44.26-1,.26s-1-.12-1-.26.44-.26,1-.26S411.51,328.93,411.51,329.07Z" style="fill:#e0e0e0"></path><ellipse cx="414.48" cy="329.07" rx="0.99" ry="0.26" style="fill:#e0e0e0"></ellipse><path d="M419.44,329.07c0,.14-.45.26-1,.26s-1-.12-1-.26.44-.26,1-.26S419.44,328.93,419.44,329.07Z" style="fill:#e0e0e0"></path><path d="M423.4,329.07c0,.14-.44.26-1,.26s-1-.12-1-.26.44-.26,1-.26S423.4,328.93,423.4,329.07Z" style="fill:#e0e0e0"></path><ellipse cx="426.37" cy="329.07" rx="0.99" ry="0.26" style="fill:#e0e0e0"></ellipse><path d="M431.33,329.07c0,.14-.44.26-1,.26s-1-.12-1-.26.44-.26,1-.26S431.33,328.93,431.33,329.07Z" style="fill:#e0e0e0"></path><path d="M435.29,329.07c0,.14-.44.26-1,.26s-1-.12-1-.26.45-.26,1-.26S435.29,328.93,435.29,329.07Z" style="fill:#e0e0e0"></path><path d="M439.26,329.07c0,.14-.45.26-1,.26s-1-.12-1-.26.44-.26,1-.26S439.26,328.93,439.26,329.07Z" style="fill:#e0e0e0"></path><path d="M443.22,329.07c0,.14-.44.26-1,.26s-1-.12-1-.26.44-.26,1-.26S443.22,328.93,443.22,329.07Z" style="fill:#e0e0e0"></path><path d="M447.19,329.07c0,.14-.45.26-1,.26s-1-.12-1-.26.45-.26,1-.26S447.19,328.93,447.19,329.07Z" style="fill:#e0e0e0"></path><path d="M451.15,329.07c0,.14-.44.26-1,.26s-1-.12-1-.26.44-.26,1-.26S451.15,328.93,451.15,329.07Z" style="fill:#e0e0e0"></path><path d="M455.11,329.07c0,.14-.44.26-1,.26s-1-.12-1-.26.45-.26,1-.26S455.11,328.93,455.11,329.07Z" style="fill:#e0e0e0"></path><path d="M458.1,330.07c-.15,0-.26-.45-.26-1l.26.26h-.21l-.18,0a1.4,1.4,0,0,1-.32-.06c-.18,0-.29-.11-.29-.18s.11-.14.29-.18a1.4,1.4,0,0,1,.32-.06h.39c.11.12-.26-.26.26.26C458.36,329.62,458.24,330.07,458.1,330.07Z" style="fill:#e0e0e0"></path><path d="M458.1,334.13c-.15,0-.26-.46-.26-1s.11-1,.26-1,.26.45.26,1S458.24,334.13,458.1,334.13Z" style="fill:#e0e0e0"></path><path d="M458.1,338.18c-.15,0-.26-.45-.26-1s.11-1,.26-1,.26.46.26,1S458.24,338.18,458.1,338.18Z" style="fill:#e0e0e0"></path><path d="M458.1,342.24c-.15,0-.26-.46-.26-1s.11-1,.26-1,.26.45.26,1S458.24,342.24,458.1,342.24Z" style="fill:#e0e0e0"></path><path d="M458.1,346.29c-.15,0-.26-.45-.26-1s.11-1,.26-1,.26.46.26,1S458.24,346.29,458.1,346.29Z" style="fill:#e0e0e0"></path><path d="M458.1,350.35c-.15,0-.26-.46-.26-1s.11-1,.26-1,.26.45.26,1S458.24,350.35,458.1,350.35Z" style="fill:#e0e0e0"></path><path d="M458.1,354.4c-.15,0-.26-.45-.26-1s.11-1,.26-1,.26.45.26,1S458.24,354.4,458.1,354.4Z" style="fill:#e0e0e0"></path><path d="M458.1,358.46c-.15,0-.26-.45-.26-1s.11-1,.26-1,.26.46.26,1S458.24,358.46,458.1,358.46Z" style="fill:#e0e0e0"></path><path d="M458.1,362.52c-.15,0-.26-.46-.26-1s.11-1,.26-1,.26.45.26,1S458.24,362.52,458.1,362.52Z" style="fill:#e0e0e0"></path><path d="M458.1,366.57c-.15,0-.26-.45-.26-1s.11-1,.26-1,.26.46.26,1S458.24,366.57,458.1,366.57Z" style="fill:#e0e0e0"></path><path d="M458.1,370.63c-.15,0-.26-.46-.26-1s.11-1,.26-1,.26.45.26,1S458.24,370.63,458.1,370.63Z" style="fill:#e0e0e0"></path><path d="M458.1,374.68c-.15,0-.26-.45-.26-1s.11-1,.26-1,.26.46.26,1S458.24,374.68,458.1,374.68Z" style="fill:#e0e0e0"></path><path d="M458.1,378.74c-.15,0-.26-.46-.26-1s.11-1,.26-1,.26.45.26,1S458.24,378.74,458.1,378.74Z" style="fill:#e0e0e0"></path><path d="M458.1,382.79c-.15,0-.26-.45-.26-1s.11-1,.26-1,.26.45.26,1S458.24,382.79,458.1,382.79Z" style="fill:#e0e0e0"></path><path d="M458.1,386.85c-.15,0-.26-.46-.26-1s.11-1,.26-1,.26.45.26,1S458.24,386.85,458.1,386.85Z" style="fill:#e0e0e0"></path><path d="M458.1,390.9c-.15,0-.26-.45-.26-1s.11-1,.26-1,.26.45.26,1S458.24,390.9,458.1,390.9Z" style="fill:#e0e0e0"></path><path d="M458.1,395c-.15,0-.26-.45-.26-1s.11-1,.26-1,.26.46.26,1S458.24,395,458.1,395Z" style="fill:#e0e0e0"></path><path d="M458.1,399c-.15,0-.26-.46-.26-1s.11-1,.26-1,.26.45.26,1S458.24,399,458.1,399Z" style="fill:#e0e0e0"></path><path d="M458.1,403.07c-.15,0-.26-.45-.26-1s.11-1,.26-1,.26.46.26,1S458.24,403.07,458.1,403.07Z" style="fill:#e0e0e0"></path><path d="M458.1,407.13c-.15,0-.26-.46-.26-1s.11-1,.26-1,.26.45.26,1S458.24,407.13,458.1,407.13Z" style="fill:#e0e0e0"></path><rect x="313.37" y="408.15" width="4.01" height="4.01" style="fill:#e0e0e0"></rect><rect x="313.37" y="327.07" width="4.01" height="4.01" style="fill:#e0e0e0"></rect><rect x="456.09" y="327.07" width="4.01" height="4.01" style="fill:#e0e0e0"></rect><rect x="456.09" y="408.15" width="4.01" height="4.01" style="fill:#e0e0e0"></rect><rect x="384.73" y="408.15" width="4.01" height="4.01" style="fill:#e0e0e0"></rect><rect x="386.73" y="327.07" width="4.01" height="4.01" style="fill:#e0e0e0"></rect><rect x="313.37" y="366.17" width="4.01" height="4.01" style="fill:#e0e0e0"></rect><rect x="456.09" y="366.17" width="4.01" height="4.01" style="fill:#e0e0e0"></rect><rect x="202.26" y="92.87" width="126.59" height="54.05" style="fill:#ebebeb"></rect><path d="M122.58,195.6c0-.15.45-.26,1-.26l-.26.26h0v-.17l0-.19a1.4,1.4,0,0,1,.06-.32c0-.18.11-.29.18-.29s.14.11.18.29a1.4,1.4,0,0,1,.06.32l0,.19v.17h0l-.26.26C123,195.86,122.58,195.74,122.58,195.6Z" style="fill:#e0e0e0"></path><path d="M118.58,195.6c0-.15.45-.26,1-.26s1,.11,1,.26-.45.26-1,.26S118.58,195.74,118.58,195.6Z" style="fill:#e0e0e0"></path><path d="M114.58,195.6c0-.15.44-.26,1-.26s1,.11,1,.26-.45.26-1,.26S114.58,195.74,114.58,195.6Z" style="fill:#e0e0e0"></path><path d="M110.57,195.6c0-.15.45-.26,1-.26s1,.11,1,.26-.45.26-1,.26S110.57,195.74,110.57,195.6Z" style="fill:#e0e0e0"></path><path d="M106.57,195.6c0-.15.45-.26,1-.26s1,.11,1,.26-.44.26-1,.26S106.57,195.74,106.57,195.6Z" style="fill:#e0e0e0"></path><path d="M102.57,195.6c0-.15.45-.26,1-.26s1,.11,1,.26-.45.26-1,.26S102.57,195.74,102.57,195.6Z" style="fill:#e0e0e0"></path><path d="M98.57,195.6c0-.15.45-.26,1-.26s1,.11,1,.26-.45.26-1,.26S98.57,195.74,98.57,195.6Z" style="fill:#e0e0e0"></path><path d="M94.57,195.6c0-.15.45-.26,1-.26s1,.11,1,.26-.45.26-1,.26S94.57,195.74,94.57,195.6Z" style="fill:#e0e0e0"></path><path d="M90.57,195.6c0-.15.44-.26,1-.26s1,.11,1,.26-.45.26-1,.26S90.57,195.74,90.57,195.6Z" style="fill:#e0e0e0"></path><path d="M86.56,195.6c0-.15.45-.26,1-.26s1,.11,1,.26-.44.26-1,.26S86.56,195.74,86.56,195.6Z" style="fill:#e0e0e0"></path><path d="M82.56,195.6c0-.15.45-.26,1-.26s1,.11,1,.26-.44.26-1,.26S82.56,195.74,82.56,195.6Z" style="fill:#e0e0e0"></path><path d="M78.56,195.6c0-.15.45-.26,1-.26s1,.11,1,.26-.45.26-1,.26S78.56,195.74,78.56,195.6Z" style="fill:#e0e0e0"></path><path d="M74.56,195.6c0-.15.45-.26,1-.26s1,.11,1,.26-.45.26-1,.26S74.56,195.74,74.56,195.6Z" style="fill:#e0e0e0"></path><path d="M70.56,195.6c0-.15.44-.26,1-.26s1,.11,1,.26-.45.26-1,.26S70.56,195.74,70.56,195.6Z" style="fill:#e0e0e0"></path><ellipse cx="67.56" cy="195.6" rx="1" ry="0.26" style="fill:#e0e0e0"></ellipse><path d="M63.55,194.6c.15,0,.26.45.26,1-.52-.52-.14-.15-.26-.26h.21l.18,0,.32,0c.18.05.29.12.29.19s-.11.13-.29.18a2.29,2.29,0,0,1-.32.06h-.39l-.26-.26C63.29,195.05,63.41,194.6,63.55,194.6Z" style="fill:#e0e0e0"></path><path d="M63.55,190.62c.15,0,.26.45.26,1s-.11,1-.26,1-.26-.45-.26-1S63.41,190.62,63.55,190.62Z" style="fill:#e0e0e0"></path><path d="M63.55,186.64c.15,0,.26.45.26,1s-.11,1-.26,1-.26-.44-.26-1S63.41,186.64,63.55,186.64Z" style="fill:#e0e0e0"></path><path d="M63.55,182.67c.15,0,.26.44.26,1s-.11,1-.26,1-.26-.44-.26-1S63.41,182.67,63.55,182.67Z" style="fill:#e0e0e0"></path><path d="M63.55,178.69c.15,0,.26.44.26,1s-.11,1-.26,1-.26-.45-.26-1S63.41,178.69,63.55,178.69Z" style="fill:#e0e0e0"></path><path d="M63.55,174.71c.15,0,.26.45.26,1s-.11,1-.26,1-.26-.44-.26-1S63.41,174.71,63.55,174.71Z" style="fill:#e0e0e0"></path><path d="M63.55,170.74c.15,0,.26.44.26,1s-.11,1-.26,1-.26-.44-.26-1S63.41,170.74,63.55,170.74Z" style="fill:#e0e0e0"></path><path d="M63.55,166.76c.15,0,.26.44.26,1s-.11,1-.26,1-.26-.45-.26-1S63.41,166.76,63.55,166.76Z" style="fill:#e0e0e0"></path><path d="M63.55,162.78c.15,0,.26.45.26,1s-.11,1-.26,1-.26-.45-.26-1S63.41,162.78,63.55,162.78Z" style="fill:#e0e0e0"></path><path d="M64.55,159.79c0,.15-.44.26-1,.26l.26-.26h0V160l0,.19a2.4,2.4,0,0,1,0,.32c-.05.18-.11.29-.19.29s-.13-.11-.18-.29,0-.2-.06-.32v-.36h0c.12-.11-.26.26.26-.26C64.11,159.53,64.55,159.65,64.55,159.79Z" style="fill:#e0e0e0"></path><path d="M68.56,159.79c0,.15-.45.26-1,.26s-1-.11-1-.26.45-.26,1-.26S68.56,159.65,68.56,159.79Z" style="fill:#e0e0e0"></path><path d="M72.56,159.79c0,.15-.45.26-1,.26s-1-.11-1-.26.44-.26,1-.26S72.56,159.65,72.56,159.79Z" style="fill:#e0e0e0"></path><path d="M76.56,159.79c0,.15-.45.26-1,.26s-1-.11-1-.26.45-.26,1-.26S76.56,159.65,76.56,159.79Z" style="fill:#e0e0e0"></path><path d="M80.56,159.79c0,.15-.45.26-1,.26s-1-.11-1-.26.45-.26,1-.26S80.56,159.65,80.56,159.79Z" style="fill:#e0e0e0"></path><path d="M84.56,159.79c0,.15-.44.26-1,.26s-1-.11-1-.26.45-.26,1-.26S84.56,159.65,84.56,159.79Z" style="fill:#e0e0e0"></path><path d="M88.56,159.79c0,.15-.44.26-1,.26s-1-.11-1-.26.45-.26,1-.26S88.56,159.65,88.56,159.79Z" style="fill:#e0e0e0"></path><path d="M92.57,159.79c0,.15-.45.26-1,.26s-1-.11-1-.26.44-.26,1-.26S92.57,159.65,92.57,159.79Z" style="fill:#e0e0e0"></path><path d="M96.57,159.79c0,.15-.45.26-1,.26s-1-.11-1-.26.45-.26,1-.26S96.57,159.65,96.57,159.79Z" style="fill:#e0e0e0"></path><path d="M100.57,159.79c0,.15-.45.26-1,.26s-1-.11-1-.26.45-.26,1-.26S100.57,159.65,100.57,159.79Z" style="fill:#e0e0e0"></path><path d="M104.57,159.79c0,.15-.45.26-1,.26s-1-.11-1-.26.45-.26,1-.26S104.57,159.65,104.57,159.79Z" style="fill:#e0e0e0"></path><path d="M108.57,159.79c0,.15-.44.26-1,.26s-1-.11-1-.26.45-.26,1-.26S108.57,159.65,108.57,159.79Z" style="fill:#e0e0e0"></path><path d="M112.58,159.79c0,.15-.45.26-1,.26s-1-.11-1-.26.45-.26,1-.26S112.58,159.65,112.58,159.79Z" style="fill:#e0e0e0"></path><path d="M116.58,159.79c0,.15-.45.26-1,.26s-1-.11-1-.26.44-.26,1-.26S116.58,159.65,116.58,159.79Z" style="fill:#e0e0e0"></path><path d="M120.58,159.79c0,.15-.45.26-1,.26s-1-.11-1-.26.45-.26,1-.26S120.58,159.65,120.58,159.79Z" style="fill:#e0e0e0"></path><path d="M123.58,160.79c-.14,0-.26-.45-.26-1l.26.26h-.2l-.19,0-.32-.05c-.18,0-.29-.12-.29-.19s.11-.13.29-.18a2.29,2.29,0,0,1,.32-.06h.39l.26.26C123.84,160.34,123.72,160.79,123.58,160.79Z" style="fill:#e0e0e0"></path><path d="M123.58,164.77c-.14,0-.26-.45-.26-1s.12-1,.26-1,.26.45.26,1S123.72,164.77,123.58,164.77Z" style="fill:#e0e0e0"></path><path d="M123.58,168.75c-.14,0-.26-.45-.26-1s.12-1,.26-1,.26.44.26,1S123.72,168.75,123.58,168.75Z" style="fill:#e0e0e0"></path><path d="M123.58,172.72c-.14,0-.26-.44-.26-1s.12-1,.26-1,.26.44.26,1S123.72,172.72,123.58,172.72Z" style="fill:#e0e0e0"></path><path d="M123.58,176.7c-.14,0-.26-.44-.26-1s.12-1,.26-1,.26.45.26,1S123.72,176.7,123.58,176.7Z" style="fill:#e0e0e0"></path><path d="M123.58,180.68c-.14,0-.26-.45-.26-1s.12-1,.26-1,.26.44.26,1S123.72,180.68,123.58,180.68Z" style="fill:#e0e0e0"></path><path d="M123.58,184.65c-.14,0-.26-.44-.26-1s.12-1,.26-1,.26.44.26,1S123.72,184.65,123.58,184.65Z" style="fill:#e0e0e0"></path><path d="M123.58,188.63c-.14,0-.26-.44-.26-1s.12-1,.26-1,.26.45.26,1S123.72,188.63,123.58,188.63Z" style="fill:#e0e0e0"></path><path d="M123.58,192.61c-.14,0-.26-.45-.26-1s.12-1,.26-1,.26.45.26,1S123.72,192.61,123.58,192.61Z" style="fill:#e0e0e0"></path><rect x="62.12" y="193.87" width="2.86" height="2.86" style="fill:#e0e0e0"></rect><rect x="62.12" y="158.36" width="2.86" height="2.86" style="fill:#e0e0e0"></rect><rect x="122.15" y="158.36" width="2.86" height="2.86" style="fill:#e0e0e0"></rect><rect x="122.15" y="193.74" width="2.86" height="2.86" style="fill:#e0e0e0"></rect><rect x="92.14" y="193.74" width="2.86" height="2.86" style="fill:#e0e0e0"></rect><rect x="92.14" y="158.36" width="2.86" height="2.86" style="fill:#e0e0e0"></rect><rect x="62.12" y="176.26" width="2.86" height="2.86" style="fill:#e0e0e0"></rect><rect x="122.15" y="176.26" width="2.86" height="2.86" style="fill:#e0e0e0"></rect><path d="M443.67,103.23c0-.14.45-.26,1-.26l-.26.26h0v-.38a2.29,2.29,0,0,1,.06-.32c0-.18.11-.29.18-.29s.14.11.19.29a2.4,2.4,0,0,1,.05.32l0,.19v.19h0l-.26.26C444.12,103.49,443.67,103.37,443.67,103.23Z" style="fill:#e0e0e0"></path><path d="M439.75,103.23c0-.14.44-.26,1-.26s1,.12,1,.26-.44.26-1,.26S439.75,103.37,439.75,103.23Z" style="fill:#e0e0e0"></path><path d="M435.83,103.23c0-.14.44-.26,1-.26s1,.12,1,.26-.44.26-1,.26S435.83,103.37,435.83,103.23Z" style="fill:#e0e0e0"></path><ellipse cx="432.89" cy="103.23" rx="0.98" ry="0.26" style="fill:#e0e0e0"></ellipse><ellipse cx="428.97" cy="103.23" rx="0.98" ry="0.26" style="fill:#e0e0e0"></ellipse><path d="M424.06,103.23c0-.14.44-.26,1-.26s1,.12,1,.26-.43.26-1,.26S424.06,103.37,424.06,103.23Z" style="fill:#e0e0e0"></path><path d="M420.14,103.23c0-.14.44-.26,1-.26s1,.12,1,.26-.44.26-1,.26S420.14,103.37,420.14,103.23Z" style="fill:#e0e0e0"></path><path d="M416.22,103.23c0-.14.44-.26,1-.26s1,.12,1,.26-.44.26-1,.26S416.22,103.37,416.22,103.23Z" style="fill:#e0e0e0"></path><path d="M412.3,103.23c0-.14.44-.26,1-.26s1,.12,1,.26-.44.26-1,.26S412.3,103.37,412.3,103.23Z" style="fill:#e0e0e0"></path><path d="M408.38,103.23c0-.14.44-.26,1-.26s1,.12,1,.26-.44.26-1,.26S408.38,103.37,408.38,103.23Z" style="fill:#e0e0e0"></path><path d="M404.46,103.23c0-.14.43-.26,1-.26s1,.12,1,.26-.44.26-1,.26S404.46,103.37,404.46,103.23Z" style="fill:#e0e0e0"></path><ellipse cx="401.51" cy="103.23" rx="0.98" ry="0.26" style="fill:#e0e0e0"></ellipse><ellipse cx="397.59" cy="103.23" rx="0.98" ry="0.26" style="fill:#e0e0e0"></ellipse><path d="M392.69,103.23c0-.14.44-.26,1-.26s1,.12,1,.26-.44.26-1,.26S392.69,103.37,392.69,103.23Z" style="fill:#e0e0e0"></path><path d="M388.77,103.23c0-.14.44-.26,1-.26s1,.12,1,.26-.44.26-1,.26S388.77,103.37,388.77,103.23Z" style="fill:#e0e0e0"></path><ellipse cx="385.83" cy="103.23" rx="0.98" ry="0.26" style="fill:#e0e0e0"></ellipse><ellipse cx="381.91" cy="103.23" rx="0.98" ry="0.26" style="fill:#e0e0e0"></ellipse><path d="M377,103.23c0-.14.44-.26,1-.26s1,.12,1,.26-.43.26-1,.26S377,103.37,377,103.23Z" style="fill:#e0e0e0"></path><path d="M373.08,103.23c0-.14.44-.26,1-.26s1,.12,1,.26-.44.26-1,.26S373.08,103.37,373.08,103.23Z" style="fill:#e0e0e0"></path><ellipse cx="370.14" cy="103.23" rx="0.98" ry="0.26" style="fill:#e0e0e0"></ellipse><path d="M365.24,103.23c0-.14.44-.26,1-.26s1,.12,1,.26-.44.26-1,.26S365.24,103.37,365.24,103.23Z" style="fill:#e0e0e0"></path><path d="M361.32,103.23c0-.14.44-.26,1-.26s1,.12,1,.26-.44.26-1,.26S361.32,103.37,361.32,103.23Z" style="fill:#e0e0e0"></path><path d="M357.4,103.23c0-.14.43-.26,1-.26s1,.12,1,.26-.44.26-1,.26S357.4,103.37,357.4,103.23Z" style="fill:#e0e0e0"></path><ellipse cx="354.45" cy="103.23" rx="0.98" ry="0.26" style="fill:#e0e0e0"></ellipse><path d="M349.55,103.23c0-.14.44-.26,1-.26s1,.12,1,.26-.44.26-1,.26S349.55,103.37,349.55,103.23Z" style="fill:#e0e0e0"></path><path d="M345.63,103.23c0-.14.44-.26,1-.26s1,.12,1,.26-.44.26-1,.26S345.63,103.37,345.63,103.23Z" style="fill:#e0e0e0"></path><path d="M342.67,102.23c.14,0,.26.45.26,1l-.26-.26h.2l.19,0a1.4,1.4,0,0,1,.32.06c.18,0,.29.11.29.18s-.11.14-.29.18a1.4,1.4,0,0,1-.32.06l-.19,0h-.2l-.26-.26C342.41,102.68,342.53,102.23,342.67,102.23Z" style="fill:#e0e0e0"></path><path d="M342.67,98.09c.14,0,.26.46.26,1s-.12,1-.26,1-.26-.47-.26-1S342.53,98.09,342.67,98.09Z" style="fill:#e0e0e0"></path><path d="M342.67,93.94c.14,0,.26.47.26,1s-.12,1-.26,1-.26-.46-.26-1S342.53,93.94,342.67,93.94Z" style="fill:#e0e0e0"></path><ellipse cx="342.67" cy="90.83" rx="0.26" ry="1.04" style="fill:#e0e0e0"></ellipse><ellipse cx="342.67" cy="86.69" rx="0.26" ry="1.04" style="fill:#e0e0e0"></ellipse><path d="M342.67,81.51c.14,0,.26.46.26,1s-.12,1-.26,1-.26-.46-.26-1S342.53,81.51,342.67,81.51Z" style="fill:#e0e0e0"></path><path d="M342.67,77.36c.14,0,.26.47.26,1s-.12,1-.26,1-.26-.47-.26-1S342.53,77.36,342.67,77.36Z" style="fill:#e0e0e0"></path><path d="M342.67,73.22c.14,0,.26.46.26,1s-.12,1-.26,1-.26-.46-.26-1S342.53,73.22,342.67,73.22Z" style="fill:#e0e0e0"></path><ellipse cx="342.67" cy="70.11" rx="0.26" ry="1.04" style="fill:#e0e0e0"></ellipse><ellipse cx="342.67" cy="65.97" rx="0.26" ry="1.04" style="fill:#e0e0e0"></ellipse><ellipse cx="342.67" cy="61.82" rx="0.26" ry="1.04" style="fill:#e0e0e0"></ellipse><path d="M342.67,56.64c.14,0,.26.47.26,1s-.12,1-.26,1-.26-.46-.26-1S342.53,56.64,342.67,56.64Z" style="fill:#e0e0e0"></path><path d="M342.67,52.5c.14,0,.26.46.26,1s-.12,1-.26,1-.26-.46-.26-1S342.53,52.5,342.67,52.5Z" style="fill:#e0e0e0"></path><path d="M342.67,48.35c.14,0,.26.47.26,1s-.12,1-.26,1-.26-.47-.26-1S342.53,48.35,342.67,48.35Z" style="fill:#e0e0e0"></path><path d="M343.67,45.28c0,.14-.45.26-1,.26l.26-.26h0v.38a1.4,1.4,0,0,1-.06.32c0,.18-.11.29-.18.29s-.14-.11-.18-.29a1.4,1.4,0,0,1-.06-.32l0-.19v-.19h0l.26-.26C343.22,45,343.67,45.14,343.67,45.28Z" style="fill:#e0e0e0"></path><ellipse cx="346.61" cy="45.28" rx="0.98" ry="0.26" style="fill:#e0e0e0"></ellipse><path d="M351.51,45.28c0,.14-.44.26-1,.26s-1-.12-1-.26.44-.26,1-.26S351.51,45.14,351.51,45.28Z" style="fill:#e0e0e0"></path><path d="M355.43,45.28c0,.14-.43.26-1,.26s-1-.12-1-.26.44-.26,1-.26S355.43,45.14,355.43,45.28Z" style="fill:#e0e0e0"></path><ellipse cx="358.38" cy="45.28" rx="0.98" ry="0.26" style="fill:#e0e0e0"></ellipse><path d="M363.28,45.28c0,.14-.44.26-1,.26s-1-.12-1-.26.44-.26,1-.26S363.28,45.14,363.28,45.28Z" style="fill:#e0e0e0"></path><path d="M367.2,45.28c0,.14-.44.26-1,.26s-1-.12-1-.26.44-.26,1-.26S367.2,45.14,367.2,45.28Z" style="fill:#e0e0e0"></path><ellipse cx="370.14" cy="45.28" rx="0.98" ry="0.26" style="fill:#e0e0e0"></ellipse><ellipse cx="374.06" cy="45.28" rx="0.98" ry="0.26" style="fill:#e0e0e0"></ellipse><path d="M379,45.28c0,.14-.43.26-1,.26s-1-.12-1-.26.44-.26,1-.26S379,45.14,379,45.28Z" style="fill:#e0e0e0"></path><path d="M382.89,45.28c0,.14-.44.26-1,.26s-1-.12-1-.26.43-.26,1-.26S382.89,45.14,382.89,45.28Z" style="fill:#e0e0e0"></path><path d="M386.81,45.28c0,.14-.44.26-1,.26s-1-.12-1-.26.44-.26,1-.26S386.81,45.14,386.81,45.28Z" style="fill:#e0e0e0"></path><path d="M390.73,45.28c0,.14-.44.26-1,.26s-1-.12-1-.26.44-.26,1-.26S390.73,45.14,390.73,45.28Z" style="fill:#e0e0e0"></path><path d="M394.65,45.28c0,.14-.44.26-1,.26s-1-.12-1-.26.44-.26,1-.26S394.65,45.14,394.65,45.28Z" style="fill:#e0e0e0"></path><path d="M398.57,45.28c0,.14-.44.26-1,.26s-1-.12-1-.26.44-.26,1-.26S398.57,45.14,398.57,45.28Z" style="fill:#e0e0e0"></path><path d="M402.49,45.28c0,.14-.43.26-1,.26s-1-.12-1-.26.44-.26,1-.26S402.49,45.14,402.49,45.28Z" style="fill:#e0e0e0"></path><ellipse cx="405.44" cy="45.28" rx="0.98" ry="0.26" style="fill:#e0e0e0"></ellipse><path d="M410.34,45.28c0,.14-.44.26-1,.26s-1-.12-1-.26.44-.26,1-.26S410.34,45.14,410.34,45.28Z" style="fill:#e0e0e0"></path><path d="M414.26,45.28c0,.14-.44.26-1,.26s-1-.12-1-.26.44-.26,1-.26S414.26,45.14,414.26,45.28Z" style="fill:#e0e0e0"></path><ellipse cx="417.2" cy="45.28" rx="0.98" ry="0.26" style="fill:#e0e0e0"></ellipse><ellipse cx="421.12" cy="45.28" rx="0.98" ry="0.26" style="fill:#e0e0e0"></ellipse><path d="M426,45.28c0,.14-.43.26-1,.26s-1-.12-1-.26.44-.26,1-.26S426,45.14,426,45.28Z" style="fill:#e0e0e0"></path><path d="M430,45.28c0,.14-.44.26-1,.26s-1-.12-1-.26.43-.26,1-.26S430,45.14,430,45.28Z" style="fill:#e0e0e0"></path><ellipse cx="432.89" cy="45.28" rx="0.98" ry="0.26" style="fill:#e0e0e0"></ellipse><path d="M437.79,45.28c0,.14-.44.26-1,.26s-1-.12-1-.26.44-.26,1-.26S437.79,45.14,437.79,45.28Z" style="fill:#e0e0e0"></path><path d="M441.71,45.28c0,.14-.44.26-1,.26s-1-.12-1-.26.44-.26,1-.26S441.71,45.14,441.71,45.28Z" style="fill:#e0e0e0"></path><path d="M444.67,46.28c-.14,0-.26-.45-.26-1l.26.26h-.2l-.19,0a1.52,1.52,0,0,1-.32-.06c-.18,0-.29-.11-.29-.18s.11-.14.29-.18a1.52,1.52,0,0,1,.32-.06h.39l.26.26C444.93,45.83,444.82,46.28,444.67,46.28Z" style="fill:#e0e0e0"></path><path d="M444.67,50.43c-.14,0-.26-.47-.26-1s.12-1,.26-1,.26.47.26,1S444.82,50.43,444.67,50.43Z" style="fill:#e0e0e0"></path><path d="M444.67,54.57c-.14,0-.26-.46-.26-1s.12-1,.26-1,.26.46.26,1S444.82,54.57,444.67,54.57Z" style="fill:#e0e0e0"></path><path d="M444.67,58.71c-.14,0-.26-.46-.26-1s.12-1,.26-1,.26.47.26,1S444.82,58.71,444.67,58.71Z" style="fill:#e0e0e0"></path><path d="M444.67,62.86c-.14,0-.26-.47-.26-1s.12-1,.26-1,.26.46.26,1S444.82,62.86,444.67,62.86Z" style="fill:#e0e0e0"></path><path d="M444.67,67c-.14,0-.26-.46-.26-1s.12-1,.26-1,.26.46.26,1S444.82,67,444.67,67Z" style="fill:#e0e0e0"></path><path d="M444.67,71.15c-.14,0-.26-.47-.26-1s.12-1,.26-1,.26.47.26,1S444.82,71.15,444.67,71.15Z" style="fill:#e0e0e0"></path><path d="M444.67,75.29c-.14,0-.26-.46-.26-1s.12-1,.26-1,.26.46.26,1S444.82,75.29,444.67,75.29Z" style="fill:#e0e0e0"></path><path d="M444.67,79.44c-.14,0-.26-.47-.26-1s.12-1,.26-1,.26.47.26,1S444.82,79.44,444.67,79.44Z" style="fill:#e0e0e0"></path><path d="M444.67,83.58c-.14,0-.26-.46-.26-1s.12-1,.26-1,.26.46.26,1S444.82,83.58,444.67,83.58Z" style="fill:#e0e0e0"></path><path d="M444.67,87.72c-.14,0-.26-.46-.26-1s.12-1,.26-1,.26.47.26,1S444.82,87.72,444.67,87.72Z" style="fill:#e0e0e0"></path><path d="M444.67,91.87c-.14,0-.26-.46-.26-1s.12-1,.26-1,.26.46.26,1S444.82,91.87,444.67,91.87Z" style="fill:#e0e0e0"></path><path d="M444.67,96c-.14,0-.26-.46-.26-1s.12-1,.26-1,.26.47.26,1S444.82,96,444.67,96Z" style="fill:#e0e0e0"></path><path d="M444.67,100.16c-.14,0-.26-.47-.26-1s.12-1,.26-1,.26.46.26,1S444.82,100.16,444.67,100.16Z" style="fill:#e0e0e0"></path><rect x="341.24" y="101.8" width="2.86" height="2.86" style="fill:#e0e0e0"></rect><rect x="341.24" y="43.85" width="2.86" height="2.86" style="fill:#e0e0e0"></rect><rect x="443.24" y="43.85" width="2.86" height="2.86" style="fill:#e0e0e0"></rect><rect x="443.24" y="101.8" width="2.86" height="2.86" style="fill:#e0e0e0"></rect><rect x="392.24" y="101.8" width="2.86" height="2.86" style="fill:#e0e0e0"></rect><rect x="393.67" y="43.85" width="2.86" height="2.86" style="fill:#e0e0e0"></rect><rect x="341.24" y="71.79" width="2.86" height="2.86" style="fill:#e0e0e0"></rect><rect x="443.24" y="71.79" width="2.86" height="2.86" style="fill:#e0e0e0"></rect><rect x="81.46" y="315.33" width="112.18" height="44.95" style="fill:#ebebeb"></rect></g><g id="freepik--Floor--inject-532"><path d="M461.74,472.45c0,.14-94.81.26-211.73.26s-211.75-.12-211.75-.26,94.79-.26,211.75-.26S461.74,472.31,461.74,472.45Z" style="fill:#263238"></path></g><g id="freepik--Screens--inject-532"><rect x="215.37" y="208.6" width="215.22" height="134.73" style="fill:#fafafa"></rect><path d="M430.59,343.33s0-.83,0-2.43,0-4,0-7.07c0-6.2,0-15.32-.05-27,0-23.37-.06-57-.11-98.21l.21.2-215.21.06h0l.26-.26c0,47.77,0,93.31,0,134.73l-.24-.24,154.94.12,44.38.06,11.81,0,3.05,0h1l-1,0h-3l-11.76,0-44.32.06-155.1.12h-.24v-.24c0-41.42,0-87,0-134.73v-.26h.27l215.21.06h.2v.2c0,41.23-.08,74.94-.11,98.34,0,11.67,0,20.78-.05,27,0,3.08,0,5.44,0,7S430.59,343.33,430.59,343.33Z" style="fill:#2D4F6C"></path><rect x="344.45" y="225.67" width="61.65" height="61.65" style="fill:#2D4F6C"></rect><path d="M397.68,296c0,.15-10,.26-22.4.26s-22.4-.11-22.4-.26,10-.26,22.4-.26S397.68,295.87,397.68,296Z" style="fill:#2D4F6C"></path><path d="M411.09,301.11c0,.15-16,.26-35.81.26s-35.81-.11-35.81-.26,16-.26,35.81-.26S411.09,301,411.09,301.11Z" style="fill:#2D4F6C"></path><path d="M411.09,307.37c0,.14-16,.26-35.81.26s-35.81-.12-35.81-.26,16-.26,35.81-.26S411.09,307.23,411.09,307.37Z" style="fill:#2D4F6C"></path><path d="M411.09,313.63c0,.14-16,.26-35.81.26s-35.81-.12-35.81-.26,16-.26,35.81-.26S411.09,313.49,411.09,313.63Z" style="fill:#2D4F6C"></path><path d="M411.09,319.89c0,.14-16,.26-35.81.26s-35.81-.12-35.81-.26,16-.26,35.81-.26S411.09,319.75,411.09,319.89Z" style="fill:#2D4F6C"></path><path d="M411.09,326.15c0,.14-16,.26-35.81.26s-35.81-.12-35.81-.26,16-.26,35.81-.26S411.09,326,411.09,326.15Z" style="fill:#2D4F6C"></path><rect x="247.15" y="225.67" width="61.65" height="61.65" style="fill:#2D4F6C"></rect><g style="opacity:0.8"><rect x="247.15" y="225.67" width="61.65" height="61.65" style="fill:#fff"></rect></g><path d="M300.38,296c0,.15-10,.26-22.4.26s-22.4-.11-22.4-.26,10-.26,22.4-.26S300.38,295.87,300.38,296Z" style="fill:#2D4F6C"></path><path d="M313.79,301.11c0,.15-16,.26-35.81.26s-35.81-.11-35.81-.26,16-.26,35.81-.26S313.79,301,313.79,301.11Z" style="fill:#2D4F6C"></path><path d="M313.79,307.37c0,.14-16,.26-35.81.26s-35.81-.12-35.81-.26,16-.26,35.81-.26S313.79,307.23,313.79,307.37Z" style="fill:#2D4F6C"></path><path d="M313.79,313.63c0,.14-16,.26-35.81.26s-35.81-.12-35.81-.26,16-.26,35.81-.26S313.79,313.49,313.79,313.63Z" style="fill:#2D4F6C"></path><path d="M313.79,319.89c0,.14-16,.26-35.81.26s-35.81-.12-35.81-.26,16-.26,35.81-.26S313.79,319.75,313.79,319.89Z" style="fill:#2D4F6C"></path><path d="M313.79,326.15c0,.14-16,.26-35.81.26s-35.81-.12-35.81-.26,16-.26,35.81-.26S313.79,326,313.79,326.15Z" style="fill:#2D4F6C"></path><g style="opacity:0.8"><rect x="344.45" y="225.67" width="61.65" height="61.65" style="fill:#fff"></rect></g><path d="M404.69,265.93a1.76,1.76,0,0,1-.33-.26l-.88-.81-3.28-3.12-11.54-11.13H389l-11.83,13.46-.47.53-.17.19-.19-.16-7.3-6h.33l-16,14.25L348.71,277,347.44,278a2.7,2.7,0,0,1-.46.36,2.34,2.34,0,0,1,.4-.42l1.21-1.15,4.59-4.23L369,258.21l.16-.14.17.13,7.31,6-.36,0,.47-.54c4.29-4.84,8.34-9.42,11.87-13.42l.17-.18.17.17,11.4,11.26,3.19,3.21.84.86A3,3,0,0,1,404.69,265.93Z" style="fill:#2D4F6C"></path><path d="M365.73,245.47s-.32-.49-1.05-1.22a6.58,6.58,0,0,0-3.85-1.84,6.41,6.41,0,0,0-5.66,2.27,6.27,6.27,0,0,0-1.44,3.39,6.33,6.33,0,0,0,3.75,6.49,6.28,6.28,0,0,0,3.65.45,6.44,6.44,0,0,0,4.8-3.77,6.56,6.56,0,0,0,.33-4.25c-.26-1-.58-1.5-.53-1.52s.1.11.24.35a4.73,4.73,0,0,1,.49,1.12,6.61,6.61,0,0,1-.19,4.44,6.8,6.8,0,0,1-9,3.65,6.82,6.82,0,0,1-4-7,6.79,6.79,0,0,1,7.66-6,6.51,6.51,0,0,1,3.94,2.06,5.13,5.13,0,0,1,.73,1C365.68,245.33,365.75,245.46,365.73,245.47Z" style="fill:#2D4F6C"></path><rect x="81.45" y="208.4" width="112.17" height="45.56" style="fill:#fff"></rect><path d="M193.62,254s0-.28,0-.81,0-1.33,0-2.37c0-2.08,0-5.13,0-9.06,0-7.87,0-19.24-.07-33.32l.12.12-112.16.06h0l.18-.18c0,15.95,0,31.35,0,45.56l-.17-.17,80.43.08,23.33,0,6.24,0h0l-6.21,0-23.29.05-80.54.08h-.17V254c0-14.21,0-29.61,0-45.56v-.18h.19l112.16.05h.13v.13c0,14.11-.05,25.51-.07,33.39,0,3.92,0,7,0,9,0,1,0,1.81,0,2.34S193.62,254,193.62,254Z" style="fill:#2D4F6C"></path><rect x="90.98" y="218.84" width="27.09" height="27.09" style="fill:#2D4F6C"></rect><path d="M185.86,229.21c0,.1-13.94.18-31.13.18s-31.14-.08-31.14-.18,13.93-.18,31.14-.18S185.86,229.11,185.86,229.21Z" style="fill:#2D4F6C"></path><path d="M185.86,234.73c0,.1-13.94.18-31.13.18s-31.14-.08-31.14-.18,13.93-.18,31.14-.18S185.86,234.63,185.86,234.73Z" style="fill:#2D4F6C"></path><path d="M163.68,240.25l-.41,0-1.17,0-4.3.05-14.17.06-14.17-.06-4.3-.05-1.17,0-.4,0a1.6,1.6,0,0,1,.4,0l1.17,0,4.3-.06,14.17-.05,14.17.05,4.3.06,1.17,0A1.65,1.65,0,0,1,163.68,240.25Z" style="fill:#2D4F6C"></path><rect x="81.45" y="370.4" width="112.17" height="45.56" style="fill:#fff"></rect><path d="M193.62,416s0-.28,0-.81,0-1.33,0-2.36c0-2.08,0-5.14,0-9.07,0-7.86,0-19.24-.07-33.32l.12.13-112.16.05h0l.18-.18c0,16,0,31.36,0,45.56l-.17-.17,80.43.08,23.33.05,6.24,0h1.64l-1.6,0-6.21,0-23.29,0-80.54.08h-.17V416c0-14.2,0-29.6,0-45.56v-.18h.19l112.16.06h.13v.12c0,14.11-.05,25.51-.07,33.39,0,3.93,0,7,0,9,0,1,0,1.81,0,2.35S193.62,416,193.62,416Z" style="fill:#2D4F6C"></path><rect x="90.98" y="380.84" width="27.09" height="27.09" style="fill:#2D4F6C"></rect><path d="M185.86,391.21c0,.1-13.94.18-31.13.18s-31.14-.08-31.14-.18,13.93-.18,31.14-.18S185.86,391.11,185.86,391.21Z" style="fill:#2D4F6C"></path><path d="M185.86,396.73c0,.1-13.94.18-31.13.18s-31.14-.08-31.14-.18,13.93-.18,31.14-.18S185.86,396.63,185.86,396.73Z" style="fill:#2D4F6C"></path><path d="M163.68,402.25a1.65,1.65,0,0,1-.41,0l-1.17,0-4.3.06-14.17.05-14.17-.05-4.3-.06-1.17,0a1.6,1.6,0,0,1-.4,0l.4,0,1.17,0,4.3-.05,14.17-.06,14.17.06,4.3.05,1.17,0Z" style="fill:#2D4F6C"></path><path d="M185.86,281.94c0,.1-13.94.18-31.13.18s-31.14-.08-31.14-.18,13.93-.17,31.14-.17S185.86,281.85,185.86,281.94Z" style="fill:#2D4F6C"></path><path d="M185.86,287.46c0,.1-13.94.18-31.13.18s-31.14-.08-31.14-.18,13.93-.17,31.14-.17S185.86,287.37,185.86,287.46Z" style="fill:#2D4F6C"></path><path d="M163.68,293a1.2,1.2,0,0,1-.41,0l-1.17,0-4.3.06-14.17.05-14.17-.05-4.3-.06L124,293a1.17,1.17,0,0,1-.4,0l.4,0,1.17,0,4.3-.05,14.17-.05,14.17.05,4.3.05,1.17,0Z" style="fill:#2D4F6C"></path><path d="M191.64,307.37c0-.14.44-.26,1-.26s1,.12,1,.26-.45.26-1,.26S191.64,307.51,191.64,307.37Z" style="fill:#2D4F6C"></path><path d="M187.64,307.37c0-.14.44-.26,1-.26s1,.12,1,.26-.45.26-1,.26S187.64,307.51,187.64,307.37Z" style="fill:#2D4F6C"></path><path d="M183.64,307.37c0-.14.44-.26,1-.26s1,.12,1,.26-.45.26-1,.26S183.64,307.51,183.64,307.37Z" style="fill:#2D4F6C"></path><path d="M179.64,307.37c0-.14.44-.26,1-.26s1,.12,1,.26-.45.26-1,.26S179.64,307.51,179.64,307.37Z" style="fill:#2D4F6C"></path><path d="M175.64,307.37c0-.14.44-.26,1-.26s1,.12,1,.26-.45.26-1,.26S175.64,307.51,175.64,307.37Z" style="fill:#2D4F6C"></path><path d="M171.64,307.37c0-.14.44-.26,1-.26s1,.12,1,.26-.45.26-1,.26S171.64,307.51,171.64,307.37Z" style="fill:#2D4F6C"></path><path d="M167.64,307.37c0-.14.44-.26,1-.26s1,.12,1,.26-.45.26-1,.26S167.64,307.51,167.64,307.37Z" style="fill:#2D4F6C"></path><path d="M163.64,307.37c0-.14.44-.26,1-.26s1,.12,1,.26-.45.26-1,.26S163.64,307.51,163.64,307.37Z" style="fill:#2D4F6C"></path><path d="M159.64,307.37c0-.14.44-.26,1-.26s1,.12,1,.26-.45.26-1,.26S159.64,307.51,159.64,307.37Z" style="fill:#2D4F6C"></path><path d="M155.64,307.37c0-.14.44-.26,1-.26s1,.12,1,.26-.45.26-1,.26S155.64,307.51,155.64,307.37Z" style="fill:#2D4F6C"></path><path d="M151.64,307.37c0-.14.44-.26,1-.26s1,.12,1,.26-.45.26-1,.26S151.64,307.51,151.64,307.37Z" style="fill:#2D4F6C"></path><path d="M147.64,307.37c0-.14.44-.26,1-.26s1,.12,1,.26-.45.26-1,.26S147.64,307.51,147.64,307.37Z" style="fill:#2D4F6C"></path><path d="M143.64,307.37c0-.14.44-.26,1-.26s1,.12,1,.26-.45.26-1,.26S143.64,307.51,143.64,307.37Z" style="fill:#2D4F6C"></path><path d="M139.64,307.37c0-.14.44-.26,1-.26s1,.12,1,.26-.45.26-1,.26S139.64,307.51,139.64,307.37Z" style="fill:#2D4F6C"></path><path d="M135.64,307.37c0-.14.44-.26,1-.26s1,.12,1,.26-.45.26-1,.26S135.64,307.51,135.64,307.37Z" style="fill:#2D4F6C"></path><path d="M131.64,307.37c0-.14.44-.26,1-.26s1,.12,1,.26-.45.26-1,.26S131.64,307.51,131.64,307.37Z" style="fill:#2D4F6C"></path><path d="M127.64,307.37c0-.14.44-.26,1-.26s1,.12,1,.26-.45.26-1,.26S127.64,307.51,127.64,307.37Z" style="fill:#2D4F6C"></path><path d="M123.64,307.37c0-.14.44-.26,1-.26s1,.12,1,.26-.45.26-1,.26S123.64,307.51,123.64,307.37Z" style="fill:#2D4F6C"></path><path d="M119.64,307.37c0-.14.44-.26,1-.26s1,.12,1,.26-.45.26-1,.26S119.64,307.51,119.64,307.37Z" style="fill:#2D4F6C"></path><path d="M115.64,307.37c0-.14.44-.26,1-.26s1,.12,1,.26-.45.26-1,.26S115.64,307.51,115.64,307.37Z" style="fill:#2D4F6C"></path><path d="M111.64,307.37c0-.14.44-.26,1-.26s1,.12,1,.26-.45.26-1,.26S111.64,307.51,111.64,307.37Z" style="fill:#2D4F6C"></path><path d="M107.64,307.37c0-.14.44-.26,1-.26s1,.12,1,.26-.45.26-1,.26S107.64,307.51,107.64,307.37Z" style="fill:#2D4F6C"></path><path d="M103.64,307.37c0-.14.44-.26,1-.26s1,.12,1,.26-.45.26-1,.26S103.64,307.51,103.64,307.37Z" style="fill:#2D4F6C"></path><path d="M99.64,307.37c0-.14.44-.26,1-.26s1,.12,1,.26-.45.26-1,.26S99.64,307.51,99.64,307.37Z" style="fill:#2D4F6C"></path><path d="M95.64,307.37c0-.14.44-.26,1-.26s1,.12,1,.26-.45.26-1,.26S95.64,307.51,95.64,307.37Z" style="fill:#2D4F6C"></path><path d="M91.64,307.37c0-.14.44-.26,1-.26s1,.12,1,.26-.45.26-1,.26S91.64,307.51,91.64,307.37Z" style="fill:#2D4F6C"></path><path d="M87.64,307.37c0-.14.44-.26,1-.26s1,.12,1,.26-.45.26-1,.26S87.64,307.51,87.64,307.37Z" style="fill:#2D4F6C"></path><path d="M83.64,307.37c0-.14.44-.26,1-.26s1,.12,1,.26-.45.26-1,.26S83.64,307.51,83.64,307.37Z" style="fill:#2D4F6C"></path><path d="M81.46,305.55c.14,0,.26.45.26,1a2.49,2.49,0,0,1-.11.82l-.15-.15c.11,0,.18.1.18.15s-.07.11-.18.15l-.08,0-.07-.18a2.49,2.49,0,0,1-.11-.82C81.2,306,81.32,305.55,81.46,305.55Z" style="fill:#2D4F6C"></path><path d="M81.46,301.55c.14,0,.26.45.26,1s-.12,1-.26,1-.26-.45-.26-1S81.32,301.55,81.46,301.55Z" style="fill:#2D4F6C"></path><path d="M81.46,297.55c.14,0,.26.45.26,1s-.12,1-.26,1-.26-.45-.26-1S81.32,297.55,81.46,297.55Z" style="fill:#2D4F6C"></path><path d="M81.46,293.55c.14,0,.26.45.26,1s-.12,1-.26,1-.26-.45-.26-1S81.32,293.55,81.46,293.55Z" style="fill:#2D4F6C"></path><path d="M81.46,289.55c.14,0,.26.45.26,1s-.12,1-.26,1-.26-.45-.26-1S81.32,289.55,81.46,289.55Z" style="fill:#2D4F6C"></path><path d="M81.46,285.55c.14,0,.26.45.26,1s-.12,1-.26,1-.26-.45-.26-1S81.32,285.55,81.46,285.55Z" style="fill:#2D4F6C"></path><path d="M81.46,281.55c.14,0,.26.45.26,1s-.12,1-.26,1-.26-.45-.26-1S81.32,281.55,81.46,281.55Z" style="fill:#2D4F6C"></path><path d="M81.46,277.55c.14,0,.26.45.26,1s-.12,1-.26,1-.26-.45-.26-1S81.32,277.55,81.46,277.55Z" style="fill:#2D4F6C"></path><path d="M81.46,273.55c.14,0,.26.45.26,1s-.12,1-.26,1-.26-.45-.26-1S81.32,273.55,81.46,273.55Z" style="fill:#2D4F6C"></path><path d="M81.46,269.55c.14,0,.26.45.26,1s-.12,1-.26,1-.26-.45-.26-1S81.32,269.55,81.46,269.55Z" style="fill:#2D4F6C"></path><path d="M81.46,265.55c.14,0,.26.45.26,1s-.12,1-.26,1-.26-.45-.26-1S81.32,265.55,81.46,265.55Z" style="fill:#2D4F6C"></path><path d="M82.33,262.42c0,.13-.38.24-.87.26l.26-.26v.13c0,.55-.12,1-.26,1s-.26-.45-.26-1v-.4h.25C82,262.18,82.33,262.29,82.33,262.42Z" style="fill:#2D4F6C"></path><path d="M86.33,262.42c0,.14-.45.26-1,.26s-1-.12-1-.26.45-.26,1-.26S86.33,262.28,86.33,262.42Z" style="fill:#2D4F6C"></path><path d="M90.33,262.42c0,.14-.45.26-1,.26s-1-.12-1-.26.45-.26,1-.26S90.33,262.28,90.33,262.42Z" style="fill:#2D4F6C"></path><path d="M94.33,262.42c0,.14-.45.26-1,.26s-1-.12-1-.26.45-.26,1-.26S94.33,262.28,94.33,262.42Z" style="fill:#2D4F6C"></path><path d="M98.33,262.42c0,.14-.45.26-1,.26s-1-.12-1-.26.45-.26,1-.26S98.33,262.28,98.33,262.42Z" style="fill:#2D4F6C"></path><path d="M102.33,262.42c0,.14-.45.26-1,.26s-1-.12-1-.26.45-.26,1-.26S102.33,262.28,102.33,262.42Z" style="fill:#2D4F6C"></path><path d="M106.33,262.42c0,.14-.45.26-1,.26s-1-.12-1-.26.45-.26,1-.26S106.33,262.28,106.33,262.42Z" style="fill:#2D4F6C"></path><path d="M110.33,262.42c0,.14-.45.26-1,.26s-1-.12-1-.26.45-.26,1-.26S110.33,262.28,110.33,262.42Z" style="fill:#2D4F6C"></path><path d="M114.33,262.42c0,.14-.45.26-1,.26s-1-.12-1-.26.45-.26,1-.26S114.33,262.28,114.33,262.42Z" style="fill:#2D4F6C"></path><path d="M118.33,262.42c0,.14-.45.26-1,.26s-1-.12-1-.26.45-.26,1-.26S118.33,262.28,118.33,262.42Z" style="fill:#2D4F6C"></path><path d="M122.33,262.42c0,.14-.45.26-1,.26s-1-.12-1-.26.45-.26,1-.26S122.33,262.28,122.33,262.42Z" style="fill:#2D4F6C"></path><path d="M126.33,262.42c0,.14-.45.26-1,.26s-1-.12-1-.26.45-.26,1-.26S126.33,262.28,126.33,262.42Z" style="fill:#2D4F6C"></path><path d="M130.33,262.42c0,.14-.45.26-1,.26s-1-.12-1-.26.45-.26,1-.26S130.33,262.28,130.33,262.42Z" style="fill:#2D4F6C"></path><path d="M134.33,262.42c0,.14-.45.26-1,.26s-1-.12-1-.26.45-.26,1-.26S134.33,262.28,134.33,262.42Z" style="fill:#2D4F6C"></path><path d="M138.33,262.42c0,.14-.45.26-1,.26s-1-.12-1-.26.45-.26,1-.26S138.33,262.28,138.33,262.42Z" style="fill:#2D4F6C"></path><path d="M142.33,262.42c0,.14-.45.26-1,.26s-1-.12-1-.26.45-.26,1-.26S142.33,262.28,142.33,262.42Z" style="fill:#2D4F6C"></path><path d="M146.33,262.42c0,.14-.45.26-1,.26s-1-.12-1-.26.45-.26,1-.26S146.33,262.28,146.33,262.42Z" style="fill:#2D4F6C"></path><path d="M150.33,262.42c0,.14-.45.26-1,.26s-1-.12-1-.26.45-.26,1-.26S150.33,262.28,150.33,262.42Z" style="fill:#2D4F6C"></path><path d="M154.33,262.42c0,.14-.45.26-1,.26s-1-.12-1-.26.45-.26,1-.26S154.33,262.28,154.33,262.42Z" style="fill:#2D4F6C"></path><path d="M158.33,262.42c0,.14-.45.26-1,.26s-1-.12-1-.26.45-.26,1-.26S158.33,262.28,158.33,262.42Z" style="fill:#2D4F6C"></path><path d="M162.33,262.42c0,.14-.45.26-1,.26s-1-.12-1-.26.45-.26,1-.26S162.33,262.28,162.33,262.42Z" style="fill:#2D4F6C"></path><path d="M166.33,262.42c0,.14-.45.26-1,.26s-1-.12-1-.26.45-.26,1-.26S166.33,262.28,166.33,262.42Z" style="fill:#2D4F6C"></path><path d="M170.33,262.42c0,.14-.45.26-1,.26s-1-.12-1-.26.45-.26,1-.26S170.33,262.28,170.33,262.42Z" style="fill:#2D4F6C"></path><path d="M174.33,262.42c0,.14-.45.26-1,.26s-1-.12-1-.26.45-.26,1-.26S174.33,262.28,174.33,262.42Z" style="fill:#2D4F6C"></path><path d="M178.33,262.42c0,.14-.45.26-1,.26s-1-.12-1-.26.45-.26,1-.26S178.33,262.28,178.33,262.42Z" style="fill:#2D4F6C"></path><path d="M182.33,262.42c0,.14-.45.26-1,.26s-1-.12-1-.26.45-.26,1-.26S182.33,262.28,182.33,262.42Z" style="fill:#2D4F6C"></path><path d="M186.33,262.42c0,.14-.45.26-1,.26s-1-.12-1-.26.45-.26,1-.26S186.33,262.28,186.33,262.42Z" style="fill:#2D4F6C"></path><path d="M190.33,262.42c0,.14-.45.26-1,.26s-1-.12-1-.26.45-.26,1-.26S190.33,262.28,190.33,262.42Z" style="fill:#2D4F6C"></path><path d="M193.64,263.11c-.12,0-.22-.29-.25-.69l.25.25h-.31c-.55,0-1-.12-1-.26s.45-.26,1-.26h.31l.26,0,0,.23C193.85,262.82,193.75,263.11,193.64,263.11Z" style="fill:#2D4F6C"></path><path d="M193.64,267.11c-.15,0-.26-.44-.26-1s.11-1,.26-1,.26.45.26,1S193.78,267.11,193.64,267.11Z" style="fill:#2D4F6C"></path><path d="M193.64,271.11c-.15,0-.26-.44-.26-1s.11-1,.26-1,.26.45.26,1S193.78,271.11,193.64,271.11Z" style="fill:#2D4F6C"></path><path d="M193.64,275.11c-.15,0-.26-.44-.26-1s.11-1,.26-1,.26.45.26,1S193.78,275.11,193.64,275.11Z" style="fill:#2D4F6C"></path><path d="M193.64,279.11c-.15,0-.26-.44-.26-1s.11-1,.26-1,.26.45.26,1S193.78,279.11,193.64,279.11Z" style="fill:#2D4F6C"></path><path d="M193.64,283.11c-.15,0-.26-.44-.26-1s.11-1,.26-1,.26.45.26,1S193.78,283.11,193.64,283.11Z" style="fill:#2D4F6C"></path><path d="M193.64,287.11c-.15,0-.26-.44-.26-1s.11-1,.26-1,.26.45.26,1S193.78,287.11,193.64,287.11Z" style="fill:#2D4F6C"></path><path d="M193.64,291.11c-.15,0-.26-.44-.26-1s.11-1,.26-1,.26.45.26,1S193.78,291.11,193.64,291.11Z" style="fill:#2D4F6C"></path><path d="M193.64,295.11c-.15,0-.26-.44-.26-1s.11-1,.26-1,.26.45.26,1S193.78,295.11,193.64,295.11Z" style="fill:#2D4F6C"></path><path d="M193.64,299.11c-.15,0-.26-.44-.26-1s.11-1,.26-1,.26.45.26,1S193.78,299.11,193.64,299.11Z" style="fill:#2D4F6C"></path><path d="M193.64,303.11c-.15,0-.26-.44-.26-1s.11-1,.26-1,.26.45.26,1S193.78,303.11,193.64,303.11Z" style="fill:#2D4F6C"></path><path d="M193.64,307.11c-.15,0-.26-.44-.26-1s.11-1,.26-1,.26.45.26,1S193.78,307.11,193.64,307.11Z" style="fill:#2D4F6C"></path><path d="M118.54,299.47c0-.15.45-.26,1-.26l-.26.26h0v-.18l0-.18a2.4,2.4,0,0,1,0-.32c.05-.18.12-.29.19-.29s.14.11.18.29a2.29,2.29,0,0,1,.06.32v.36h0c-.12.11.26-.26-.26.26C119,299.73,118.54,299.61,118.54,299.47Z" style="fill:#2D4F6C"></path><path d="M114.8,299.47c0-.15.42-.26.94-.26s.93.11.93.26-.42.26-.93.26S114.8,299.61,114.8,299.47Z" style="fill:#2D4F6C"></path><path d="M111.07,299.47c0-.15.42-.26.93-.26s.94.11.94.26-.42.26-.94.26S111.07,299.61,111.07,299.47Z" style="fill:#2D4F6C"></path><path d="M107.33,299.47c0-.15.42-.26.94-.26s.93.11.93.26-.42.26-.93.26S107.33,299.61,107.33,299.47Z" style="fill:#2D4F6C"></path><path d="M103.6,299.47c0-.15.42-.26.93-.26s.94.11.94.26-.42.26-.94.26S103.6,299.61,103.6,299.47Z" style="fill:#2D4F6C"></path><path d="M99.86,299.47c0-.15.42-.26.94-.26s.93.11.93.26-.42.26-.93.26S99.86,299.61,99.86,299.47Z" style="fill:#2D4F6C"></path><path d="M96.13,299.47c0-.15.42-.26.93-.26s.94.11.94.26-.42.26-.94.26S96.13,299.61,96.13,299.47Z" style="fill:#2D4F6C"></path><path d="M92.39,299.47c0-.15.42-.26.94-.26s.93.11.93.26-.42.26-.93.26S92.39,299.61,92.39,299.47Z" style="fill:#2D4F6C"></path><path d="M89.53,298.47c.14,0,.26.44.26,1l-.26-.26h.2l.18,0,.32,0c.18.05.3.11.3.19s-.12.13-.3.18l-.32.06h-.38l-.27-.26C89.26,298.91,89.38,298.47,89.53,298.47Z" style="fill:#2D4F6C"></path><path d="M89.53,294.44c.14,0,.26.45.26,1s-.12,1-.26,1-.27-.45-.27-1S89.38,294.44,89.53,294.44Z" style="fill:#2D4F6C"></path><path d="M89.53,290.41c.14,0,.26.45.26,1s-.12,1-.26,1-.27-.45-.27-1S89.38,290.41,89.53,290.41Z" style="fill:#2D4F6C"></path><path d="M89.53,286.39c.14,0,.26.45.26,1s-.12,1-.26,1-.27-.45-.27-1S89.38,286.39,89.53,286.39Z" style="fill:#2D4F6C"></path><path d="M89.53,282.36c.14,0,.26.45.26,1s-.12,1-.26,1-.27-.46-.27-1S89.38,282.36,89.53,282.36Z" style="fill:#2D4F6C"></path><path d="M89.53,278.34c.14,0,.26.45.26,1s-.12,1-.26,1-.27-.45-.27-1S89.38,278.34,89.53,278.34Z" style="fill:#2D4F6C"></path><path d="M89.53,274.31c.14,0,.26.45.26,1s-.12,1-.26,1-.27-.45-.27-1S89.38,274.31,89.53,274.31Z" style="fill:#2D4F6C"></path><path d="M90.53,271.3c0,.14-.45.26-1,.26l.26-.26h0v.37c0,.12,0,.22-.06.31s-.11.3-.18.3-.14-.11-.19-.3a2.24,2.24,0,0,1,0-.31l0-.19v-.18h0l.27-.26C90.08,271,90.53,271.15,90.53,271.3Z" style="fill:#2D4F6C"></path><path d="M94.26,271.3c0,.14-.42.26-.93.26s-.94-.12-.94-.26.42-.26.94-.26S94.26,271.15,94.26,271.3Z" style="fill:#2D4F6C"></path><path d="M98,271.3c0,.14-.42.26-.94.26s-.93-.12-.93-.26.42-.26.93-.26S98,271.15,98,271.3Z" style="fill:#2D4F6C"></path><path d="M101.73,271.3c0,.14-.42.26-.93.26s-.94-.12-.94-.26.42-.26.94-.26S101.73,271.15,101.73,271.3Z" style="fill:#2D4F6C"></path><path d="M105.47,271.3c0,.14-.42.26-.94.26s-.93-.12-.93-.26.42-.26.93-.26S105.47,271.15,105.47,271.3Z" style="fill:#2D4F6C"></path><path d="M109.2,271.3c0,.14-.42.26-.93.26s-.94-.12-.94-.26.42-.26.94-.26S109.2,271.15,109.2,271.3Z" style="fill:#2D4F6C"></path><path d="M112.94,271.3c0,.14-.42.26-.94.26s-.93-.12-.93-.26.42-.26.93-.26S112.94,271.15,112.94,271.3Z" style="fill:#2D4F6C"></path><path d="M116.67,271.3c0,.14-.42.26-.93.26s-.94-.12-.94-.26.42-.26.94-.26S116.67,271.15,116.67,271.3Z" style="fill:#2D4F6C"></path><path d="M119.54,272.3c-.15,0-.26-.45-.26-1l.26.26h-.39a2.29,2.29,0,0,1-.32-.06c-.18-.05-.29-.11-.29-.18s.11-.14.29-.19l.32-.05.19,0h.2l.26.26C119.8,271.85,119.68,272.3,119.54,272.3Z" style="fill:#2D4F6C"></path><path d="M119.54,276.32c-.15,0-.26-.45-.26-1s.11-1,.26-1,.26.45.26,1S119.68,276.32,119.54,276.32Z" style="fill:#2D4F6C"></path><path d="M119.54,280.35c-.15,0-.26-.45-.26-1s.11-1,.26-1,.26.45.26,1S119.68,280.35,119.54,280.35Z" style="fill:#2D4F6C"></path><ellipse cx="119.54" cy="283.37" rx="0.26" ry="1.01" style="fill:#2D4F6C"></ellipse><path d="M119.54,288.4c-.15,0-.26-.45-.26-1s.11-1,.26-1,.26.45.26,1S119.68,288.4,119.54,288.4Z" style="fill:#2D4F6C"></path><path d="M119.54,292.43c-.15,0-.26-.45-.26-1s.11-1,.26-1,.26.45.26,1S119.68,292.43,119.54,292.43Z" style="fill:#2D4F6C"></path><ellipse cx="119.54" cy="295.45" rx="0.26" ry="1.01" style="fill:#2D4F6C"></ellipse><rect x="88.81" y="298.75" width="1.43" height="1.43" style="fill:#2D4F6C"></rect><rect x="88.81" y="270.58" width="1.43" height="1.43" style="fill:#2D4F6C"></rect><rect x="118.82" y="270.58" width="1.43" height="1.43" style="fill:#2D4F6C"></rect><rect x="118.82" y="298.03" width="1.43" height="1.43" style="fill:#2D4F6C"></rect><rect x="103.1" y="298.75" width="1.43" height="1.43" style="fill:#2D4F6C"></rect><rect x="103.82" y="270.58" width="1.43" height="1.43" style="fill:#2D4F6C"></rect><rect x="88.81" y="285.38" width="1.43" height="1.43" style="fill:#2D4F6C"></rect><rect x="118.11" y="284.67" width="1.43" height="1.43" style="fill:#2D4F6C"></rect><rect x="63.78" y="63.06" width="351.65" height="12.57" style="fill:#2D4F6C"></rect><g style="opacity:0.8"><rect x="63.78" y="63.06" width="351.65" height="12.57" style="fill:#fff"></rect></g><ellipse cx="69.65" cy="68.95" rx="1.97" ry="1.88" style="fill:#2D4F6C"></ellipse><ellipse cx="75.65" cy="68.95" rx="1.97" ry="1.88" style="fill:#2D4F6C"></ellipse><path d="M83.62,69a2,2,0,1,1-2-1.87A1.92,1.92,0,0,1,83.62,69Z" style="fill:#2D4F6C"></path></g><g id="freepik--Plant--inject-532"><path d="M389.26,404.86c7.45,2.6,17.17.27,23.55-4.38s11-11.32,15-18.09c1.74-2.88,3.43-5.89,4-9.22s-.26-7.06-2.84-9.23c-4-3.37-10.14-1.66-14.69.93a50.68,50.68,0,0,0-25,40" style="fill:#2D4F6C"></path><path d="M397.26,422.69c4.48,5.9,12.17,8.53,19.57,8.87s14.71-1.7,21.62-4.35c2.51-1,5.26-2.29,6.12-4.83a6.15,6.15,0,0,0-1.31-5.7,12.76,12.76,0,0,0-5-3.4,34.06,34.06,0,0,0-21.76-1.18c-7.17,1.86-13.42,6-19.24,10.59" style="fill:#2D4F6C"></path><path d="M389.16,372.94c6.16.12,10.83-5.28,13.62-10.78a40,40,0,0,0,3.68-24.92c-.57-3.15-1.76-6.55-4.58-8.06s-6.59-.53-9,1.67-3.72,5.32-4.68,8.43c-3.31,10.71-2.59,23,1,33.66" style="fill:#2D4F6C"></path><path d="M368.9,407.05c10.51-17.9,12.26-39.79,6.05-59.6-1-3.21-2.91-6.89-6.27-7.1-3.72-.24-6.05,3.91-7.08,7.5-3.6,12.57-2.84,25.93-2,39,.49,8.05,3.25,14.92,9.34,20.21" style="fill:#2D4F6C"></path><path d="M358,414.41a43,43,0,0,0-25.52-27.06c-2.79-1.05-6.34-1.65-8.42.49s-1.42,5.6-.11,8.21c2.12,4.23,5.56,7.63,9,10.89,3.12,3,6.35,5.94,10.29,7.66s11.18,2.16,14.78-.19" style="fill:#2D4F6C"></path><path d="M423.16,368.43a.88.88,0,0,1-.19.17l-.56.44-2.21,1.64-1.6,1.18c-.57.45-1.17,1-1.83,1.5-1.3,1.08-2.84,2.26-4.39,3.73l-2.48,2.25c-.85.79-1.68,1.68-2.57,2.56-1.81,1.74-3.56,3.77-5.45,5.87a116,116,0,0,0-19.22,31.09c-1,2.63-2.07,5.11-2.82,7.5-.38,1.19-.81,2.33-1.13,3.45s-.62,2.2-.91,3.23c-.62,2-1,3.94-1.37,5.59-.19.83-.38,1.59-.52,2.31s-.24,1.36-.34,1.95c-.21,1.15-.37,2.05-.49,2.71-.06.29-.1.52-.14.7a.81.81,0,0,1-.06.24.62.62,0,0,1,0-.24c0-.19.05-.42.09-.71.1-.67.23-1.58.4-2.73l.3-2c.12-.72.3-1.49.47-2.32.37-1.66.71-3.57,1.31-5.63.28-1,.58-2.11.88-3.24s.73-2.27,1.11-3.47c.74-2.41,1.76-4.9,2.79-7.54a113,113,0,0,1,19.29-31.22c1.91-2.1,3.68-4.13,5.51-5.86.9-.88,1.73-1.76,2.6-2.55l2.51-2.23c1.57-1.46,3.13-2.62,4.45-3.69.67-.52,1.28-1,1.86-1.46l1.63-1.15,2.26-1.58.6-.4Z" style="fill:#263238"></path><path d="M437.08,418a3.27,3.27,0,0,1-.72-.12c-.47-.08-1.15-.26-2.05-.41a57.47,57.47,0,0,0-7.61-.93,55.55,55.55,0,0,0-45.11,18.77,58.23,58.23,0,0,0-4.7,6c-.53.74-.88,1.36-1.15,1.75a3.9,3.9,0,0,1-.43.6,6.07,6.07,0,0,1,.34-.65c.25-.41.57-1,1.08-1.8a49.91,49.91,0,0,1,4.6-6.18,54.63,54.63,0,0,1,45.39-18.89,50.17,50.17,0,0,1,7.63,1.09c.89.18,1.57.39,2,.51A4.12,4.12,0,0,1,437.08,418Z" style="fill:#263238"></path><path d="M398.25,336.32s0,.1,0,.28-.1.47-.17.8q-.26,1.11-.69,3.09c-.61,2.67-1.53,6.53-2.69,11.29-2.32,9.53-5.69,22.65-9.19,37.18-1.75,7.28-3.32,14.23-4.68,20.56s-2.48,12.07-3.32,16.89c-.46,2.41-.8,4.6-1.12,6.52s-.59,3.57-.79,4.93-.36,2.37-.48,3.12l-.14.81a1,1,0,0,1-.06.27.84.84,0,0,1,0-.28q0-.31.09-.81c.09-.75.23-1.8.39-3.14s.4-3,.7-4.94.62-4.12,1.05-6.54c.8-4.84,1.91-10.57,3.22-16.92s2.9-13.3,4.64-20.58c3.51-14.55,6.93-27.65,9.34-37.15,1.19-4.73,2.16-8.57,2.84-11.26.33-1.3.59-2.33.78-3.06.09-.32.16-.59.22-.79A1.1,1.1,0,0,1,398.25,336.32Z" style="fill:#263238"></path><path d="M374.1,440.62s0-.07-.07-.21l-.14-.65c-.13-.61-.3-1.44-.52-2.49-.45-2.17-1-5.31-1.71-9.2-1.35-7.79-3-18.6-3.93-30.63-.48-6-.74-11.76-.86-17s0-9.93.12-13.88c.05-2,.18-3.76.27-5.33s.19-2.91.29-4,.18-1.91.23-2.53c0-.26.06-.48.08-.66s0-.22,0-.22a.82.82,0,0,1,0,.23c0,.18,0,.39,0,.66,0,.62-.08,1.47-.14,2.54s-.15,2.45-.21,4-.16,3.35-.19,5.32c-.12,3.95-.13,8.65,0,13.86s.42,11,.89,17c1,12,2.52,22.82,3.78,30.61.63,3.9,1.17,7.05,1.56,9.22.18,1.06.32,1.9.42,2.51,0,.27.08.48.1.66A.74.74,0,0,1,374.1,440.62Z" style="fill:#263238"></path><path d="M374.88,442.9a3.71,3.71,0,0,1-.28-.62q-.25-.69-.69-1.8l-.49-1.3-.68-1.52-.77-1.74c-.27-.61-.62-1.23-1-1.9l-1.07-2.09-1.28-2.2c-.84-1.54-1.94-3.07-3-4.74a112.92,112.92,0,0,0-7.92-10.13,125.57,125.57,0,0,0-9.09-9.09c-1.51-1.28-2.9-2.55-4.29-3.62l-2-1.59-1.89-1.39c-1.2-.91-2.32-1.66-3.31-2.33s-1.83-1.24-2.55-1.67l-1.63-1a2.88,2.88,0,0,1-.55-.39,3.7,3.7,0,0,1,.6.3l1.68,1c.74.4,1.61.95,2.61,1.6s2.14,1.38,3.35,2.27l1.92,1.38c.64.5,1.32,1,2,1.57,1.42,1.06,2.82,2.32,4.34,3.59a118.72,118.72,0,0,1,9.16,9.11,108.75,108.75,0,0,1,7.93,10.2c1.05,1.69,2.13,3.24,3,4.8.43.76.85,1.51,1.26,2.22s.71,1.44,1.05,2.11.66,1.31.93,1.93.5,1.21.74,1.77.44,1.05.64,1.53.31.92.45,1.32c.25.76.45,1.37.61,1.84A4.58,4.58,0,0,1,374.88,442.9Z" style="fill:#263238"></path><path d="M419.26,389.19c0,.08-1.28.08-3.32.19a59.31,59.31,0,0,0-15.68,3c-1.95.65-3.13,1.11-3.16,1a3.2,3.2,0,0,1,.79-.43c.52-.25,1.29-.57,2.25-.94a47.72,47.72,0,0,1,15.78-3c1,0,1.87,0,2.45.05A3.48,3.48,0,0,1,419.26,389.19Z" style="fill:#263238"></path><path d="M427.19,427.94a30.25,30.25,0,0,0-4.33-6.53,29.92,29.92,0,0,0-6.19-4.8,7.32,7.32,0,0,1,2.14.94,18.88,18.88,0,0,1,7.6,8.19A7.54,7.54,0,0,1,427.19,427.94Z" style="fill:#263238"></path><path d="M400.14,350.85c.1.11-1.84,2-3.95,4.63s-3.62,4.87-3.74,4.8a21.69,21.69,0,0,1,3.35-5.11A21.33,21.33,0,0,1,400.14,350.85Z" style="fill:#263238"></path><path d="M393.78,339.88a36.52,36.52,0,0,1,1.43,8.38,18.87,18.87,0,0,1-1-4.15A19.08,19.08,0,0,1,393.78,339.88Z" style="fill:#263238"></path><path d="M374.11,374.31a51.61,51.61,0,0,1-3.08,6.48,53.52,53.52,0,0,1-3.51,6.25,50.62,50.62,0,0,1,3.07-6.48A54.38,54.38,0,0,1,374.11,374.31Z" style="fill:#263238"></path><path d="M362.4,362.62a28.76,28.76,0,0,1,2.61,4.69,29.71,29.71,0,0,1,2.17,4.9,27.86,27.86,0,0,1-2.61-4.68A29.59,29.59,0,0,1,362.4,362.62Z" style="fill:#263238"></path><path d="M345.19,402.6c0,.14-2.12-.26-4.72-.44s-4.73-.09-4.74-.23a13.62,13.62,0,0,1,4.78-.27A13.46,13.46,0,0,1,345.19,402.6Z" style="fill:#263238"></path><path d="M357,437.94l5.85,30.79a4.32,4.32,0,0,0,4.24,3.51h17.3a4.31,4.31,0,0,0,4.25-3.61l5.09-30.69Z" style="fill:#263238"></path><polygon points="358.85 447.95 391.93 447.95 393.68 437.94 356.95 437.94 358.85 447.95" style="fill:#455a64"></polygon><polygon points="358.85 447.95 359.54 451.6 391.42 451.6 391.93 447.95 358.85 447.95" style="fill:#fafafa"></polygon></g></svg>