<svg viewBox="0 0 133 32" xmlns="http://www.w3.org/2000/svg">
  <path fill="#2b3283" d="M101.305 32h31.663V0h-31.663v32z"/>
  <path fill="#0ca19d" d="M67.537 32h31.747V0H67.537z"/>
  <path fill="#c41d63" d="M33.853 32h31.663V0H33.853z"/>
  <path fill="#1565a0" d="M0 32h31.747V0H0z"/>
  <path fill="#fff" d="M78.653 6.484v19.2h-.506v.674h2.948v-.674h-.506v-19.2h.506v-.673h-2.948v.673h.506zm3.79 0v19.2h-.506v.674h2.947v-.674h-.505v-19.2h.505v-.673h-2.947v.673h.505zm3.283 19.874h2.948v-.674h-.506v-19.2h.506v-.673h-2.948v.673h.506v19.2h-.506v.674zM49.432 14.4l4.21 8.084h-8.084l3.874-8.084zm10.526 11.958L49.263 5.81l-9.852 20.547h20.547zM24.42 6.484v-.59H19.2V6.4c.674.084.842.337.842 1.01v12.127h-.084c-.421-1.769-6.99-12.126-6.99-12.8 0-.253.169-.337.674-.337v-.505H7.326V6.4c.506.084.758.337.758 1.01v17.264c0 .673-.168.926-.842 1.01v.505h5.221v-.505c-.59-.084-.842-.337-.842-1.01V11.368h.084c1.263 3.537 7.748 13.221 7.748 13.81 0 .422-.337.506-.758.506v.505h5.558v-.505c-.506-.084-.674-.252-.674-1.01V7.494c0-.673.168-.926.842-1.01zm92.295 5.39c.084.168-.59.42-1.095.505.421-.505.926-.926 1.095-.505zm-3.032 1.768c.084.169-.842.084-1.347.169.42-.422 1.179-.59 1.347-.169zm6.232-.842c.337-.168 1.347-.337 1.431-.168a1.571 1.571 0 0 0-.336.252c-.085-.168-1.095-.084-1.095-.084zm1.095 4.379c-.085.59-.59 1.095-1.011 1.432.168-.506.674-1.011 1.01-1.432zm-1.18 3.705c.169-.252.337-.42.422-.505.168.084.252.337.336.421-.673.842-.842.926-1.347 1.347.084-.42.505-.926.59-1.263zm-1.852 1.01c-.842.843-1.347 1.264-2.442 2.106.59-.674 1.6-1.432 2.442-2.105zm-2.863.927c-.842.842-1.348 1.263-2.442 2.105.59-.673 1.6-1.515 2.442-2.105zm-1.684.421c-.337.421-1.01 1.095-1.095.842-.084-.168.674-.59 1.095-.842zm8.168-6.653c.253-.505.337-.926.337-1.515 0-.421-.337-.927-.169-1.095.337-.084.506.505.506 1.01.084.59-.085 1.264-.674 1.6zm-.084-12.21c-1.095-.337-1.263-.168-1.937 0-.168 0 0-.337-.168-.337-.169-.084-.506.084-.506.084l-.505.337c-.926.59-2.105 1.516-2.19 1.684.085.169.337.253.337.253s-3.368 2.61-3.62 3.116c.084.084.084.084.084.168.168.253-.59.253-.59.59 0 .168.084.252.084.337l-1.01.842-.253.084c-.168.168-1.516 1.852-1.516 2.358.085.084.253.337.253.337-.253.252-.421-.085-.674.084-.42.168-.505.505-.505.842 0 .253.253.42.253.674 0 .336-.253.505-.169.842 0 .505.169.842.59 1.094.252.169.505.085.758.253.252.168.252.421.505.505.42.169.926-.084 1.431-.168l.337.337c.842-.506 5.137-1.937 5.137-1.937v-.253s1.769-.505 2.021-.252c-.084.926-.674 1.431-.505 1.684.168.168.505-.337.59-.59h.336c.253-.168.758-1.01.927-1.094-.085.59-1.432 2.61-1.853 2.947v.253c-1.01.842-3.032 2.779-3.453 3.2-.252.168-.673.252-.758.084-.168-.169 1.18-1.01 1.348-1.348.084-.168-.084-.168-.084-.336 0 0 1.515-1.264 1.347-1.685-.421.674-4.126 3.958-5.39 4.548-.084-.169-.168-.59-.42-.59-.17 0-.17.506-.253.758l-1.095.674.168.42c-.084 0-.168 0-.252.17 0 .252 0 .505.084.673.084.253.337 0 .59 0-.169.253-.169.421-.253.674 0 .168-.169.42 0 .505.168.168.337 0 .505-.084 0 0 .253.505.505.673-.084.085.674.253.506.674-.085.253.926.758 2.779-.337l.42-.42-.336-.59s1.516-1.263 1.6-1.684c-.337.084-1.516 1.01-1.516 1.01l2.021-2.105.337.252.674-.589.336.084.421-.252h.253c.674-.843 1.263-1.516 1.347-1.685.169-.336.169-.505.169-.842.337-.337 1.263-1.347 1.263-1.347l-.253-.253c.253-.168.927-1.094.927-1.094 0 .084.168.42.252.42-.084.422-1.347 2.443-1.768 2.78.421 0 1.516-1.18 2.105-2.19.505-.842.59-1.432.842-2.442.169-.842.253-1.263.337-2.105h.421c-.42-1.516-1.937-1.769-1.852-2.106.084-.252.59 0 1.094.169-.42-.926-.842-.59-1.094-.758-.337-.253-.337-.505-.674-.758-.758-.505-1.6-.168-2.274-.084.253.168 1.684 0 1.853.252-.169.169-.253.085-.337.253-.084.084 0 .253 0 .421-.337-.168-4.379.674-4.884.842.252-.337 3.368-1.179 3.368-1.179l-.252-.505c-.169-.084-2.358.505-2.358.505s.337-.59.673-.59c.085 0 .337.085.337.085.505-.59 3.79-2.779 4.295-3.2-.59.084-.505-.168-.253-.505-.337.084-.337 0-.168-.337-.084 0-.169 0-.253-.084-.168-.169.253-.337.169-.506-.085-.252-.337-.252-.421-.42-.169-.337 0-.758 0-.927-.085-.253-.337-.168-.421-.505-.085-.505.084-.59.084-.758zm2.105 14.653c.337-.59.842-2.021.758-2.527-.253.506-.758 2.274-.758 2.527zM124.8 8.168c.084-.168-.337-.336-.59-.336-.252 0-.757.084-.673.252 0 .169.42.084.59.084.252.085.589.253.673 0zm-12.716 2.106c-.168.168 0-.421 0-.421-.337.252-2.358 2.105-2.442 2.694.084.169.337.169.337.169.168-.421 2.105-2.442 2.105-2.442zm-1.516 13.305c.421-.168.927-.505.758-.674-.168-.168-.59.421-.758.674zm.085.505c.168-.084.59-.252.42-.42-.168-.17-.42.252-.42.42zm7.326-4.8c-.337.169-.926.842-1.095 1.18.59-.253 1.18-.675 1.095-1.18zm.758-.084c.505-.59.926-.842.842-1.263-.421.084-.842 1.01-.842 1.263zm10.779 8.421c0 .168-.084.253-.337.253h-.421v-.506h.42c.17 0 .338.085.338.253zm.42 1.179l-.42-.674c.252-.084.42-.252.42-.59 0-.42-.252-.589-.673-.589h-.842V28.8h.421v-.59h.337l.421.59h.337zm.506-.842c0 .842-.505 1.431-1.431 1.431-.843 0-1.348-.589-1.348-1.431 0-.842.505-1.432 1.432-1.432.842 0 1.347.59 1.347 1.432zm.337 0a1.69 1.69 0 0 0-1.684-1.684c-.927 0-1.684.758-1.684 1.768a1.69 1.69 0 0 0 1.684 1.684c.926 0 1.684-.842 1.684-1.768z"/>
</svg>
