<svg viewBox="0 0 132 32" xmlns="http://www.w3.org/2000/svg">
  <path fill="#000" d="M22.305 16.75c-.592.191-1.423.878-2.048 1.162-.728.331-1.405.512-2.053.905-1.41.86-2.944 1.349-4.383 2.137C9.307 23.422 4.417 25.073 0 27.61c3.295-4.573 8.888-6.68 13.634-9.209.788-.42 1.45-.817 2.191-1.31.623-.41 1.437-.728 2.304-1.032a5.143 5.143 0 0 1 2.04-.311c.723.034 1.442.35 2.136 1.003zm4.828 1.94c-.59.19-1.42.878-2.048 1.164-.728.332-1.405.512-2.052.905-1.41.862-2.947 1.349-4.383 2.137-4.515 2.468-9.404 4.119-13.82 6.657 3.295-4.574 8.886-6.682 13.635-9.21.786-.42 1.45-.82 2.191-1.309.62-.41 1.434-.729 2.301-1.033A5.145 5.145 0 0 1 25 17.69c.723.032 1.442.348 2.133 1zm4.931 2.041c-.592.193-1.422.878-2.048 1.164-.728.334-1.407.512-2.052.905-1.413.862-2.944 1.349-4.383 2.137-4.515 2.468-9.404 4.119-13.821 6.657 3.292-4.574 8.885-6.682 13.633-9.207a27.01 27.01 0 0 0 2.194-1.31c.62-.407 1.432-.726 2.299-1.032a5.15 5.15 0 0 1 2.043-.312c.723.03 1.444.346 2.135.998z"/>
  <path fill="#2c60a4" d="M10.514 15.323c.59-.19 1.42-.877 2.048-1.162.728-.33 1.408-.511 2.053-.904 1.41-.862 2.944-1.352 4.383-2.137C23.51 8.65 28.402 7 32.818 4.463c-3.294 4.574-8.887 6.681-13.633 9.21-.789.42-1.451.82-2.194 1.309-.62.41-1.434.729-2.303 1.035a5.145 5.145 0 0 1-2.04.311c-.724-.04-1.442-.355-2.134-1.005zM5.686 13.38c.589-.19 1.42-.878 2.045-1.162.728-.333 1.408-.509 2.053-.904 1.41-.86 2.946-1.35 4.383-2.137 4.514-2.471 9.404-4.12 13.82-6.657-3.294 4.574-8.887 6.681-13.633 9.206-.786.42-1.45.818-2.191 1.308-.621.41-1.434.728-2.304 1.035-.703.25-1.33.343-2.043.311-.72-.032-1.441-.348-2.13-1zM.752 11.34c.592-.19 1.422-.878 2.048-1.162.728-.333 1.408-.511 2.053-.904 1.41-.86 2.944-1.35 4.383-2.137C13.75 4.666 18.64 3.017 23.057.48c-3.295 4.574-8.885 6.681-13.634 9.21-.786.417-1.45.817-2.194 1.306-.618.41-1.431.727-2.298 1.033a5.157 5.157 0 0 1-2.043.311c-.723-.032-1.442-.348-2.136-1zM39.7 21.591l-1.792 4.64h-1.193l-2.27-5.875h1.077l1.79 4.638 1.794-4.638H40.3l1.792 4.638 1.793-4.638h1.076l-2.27 5.876h-1.195l-1.795-4.64zm12.506 4.64h-.957v-5.875h.957v5.876zm6.297 0v-5.875H64c.796.067 1.196.628 1.196 1.68 0 .564-.117.981-.349 1.26.234.282.349.705.349 1.273l-.005 1.663h-.833v-1.663c0-.58-.2-.87-.597-.87h-4.302v2.533h-.955zm.955-3.342h4.302c.4 0 .597-.284.597-.85 0-.581-.2-.873-.597-.873h-4.302v1.723zm18.243.81h-5.257v1.722h5.734v.81h-6.689v-5.875h6.689v.81h-5.734v1.723H77.7v.81zm7.729 1.722h5.257v.81h-6.212v-5.875h.957v5.065h-.002zm17.766-1.722h-5.258v1.722h5.735v.81H96.98v-5.875h6.692v.81h-5.735v1.723h5.258v.81zm6.771-1.52h.005l-.005-.259c.08-.907.48-1.428 1.196-1.564h5.257c.75.126 1.146.734 1.188 1.823h-.955c-.036-.674-.274-1.013-.713-1.013h-4.3c-.409 0-.645.304-.711.912.078.541.314.81.708.81h4.79c.713.137 1.11.643 1.188 1.52l-.004.203c-.076.949-.473 1.487-1.189 1.62h-5.257c-.753-.125-1.149-.736-1.188-1.823h.955c.039.675.274 1.013.71 1.013h4.3c.41 0 .648-.304.718-.911-.074-.542-.313-.81-.712-.81h-4.79c-.714-.137-1.11-.64-1.19-1.52zm13.942 0h.006l-.006-.259c.081-.907.478-1.428 1.196-1.564h5.258c.752.126 1.149.734 1.19 1.823h-.955c-.038-.674-.274-1.013-.71-1.013h-4.3c-.408 0-.646.304-.712.912.079.541.312.81.709.81h4.787c.713.137 1.11.643 1.19 1.52l-.004.203c-.075.949-.473 1.487-1.19 1.62h-5.258c-.753-.125-1.15-.736-1.188-1.823h.954c.04.675.276 1.013.712 1.013h4.3c.409 0 .647-.304.716-.911-.076-.542-.314-.81-.712-.81h-4.787c-.72-.137-1.115-.64-1.196-1.52z"/>
  <path fill="#000" d="M76.61 17.388l.053.052h-3.552l-6.5-5.624v-.719h6.84c.169-.163.278-.289.315-.346l.226-.555v-.332l-.092-.187a2.707 2.707 0 0 0-.239-.388.511.511 0 0 0-.117-.129c-.03-.022-.034-.02-.034-.02h-8.067v8.298h-2.895V6.66h11.29v.192h.003V6.66c.468 0 .884.12 1.225.368.326.235.594.526.799.867.2.334.348.692.44 1.07.093.37.14.712.14 1.02 0 .552-.113 1.043-.342 1.463a3.25 3.25 0 0 1-.922 1.058 4.465 4.465 0 0 1-1.345.682c-.387.126-.796.22-1.23.282l3.788 3.707L81.925 6.81h4.162l5.729 10.578h-3.555l-.993-1.87h-6.48l-.935 1.87H76.61zM43.23 15.14c.52 0 .778-.316.778-.949 0-.603-.256-.907-.765-.907h-6.62c-1.652 0-2.48-1.114-2.48-3.345 0-2.172.826-3.257 2.48-3.257h7.845c.596.01 1.18.301 1.758.877.25.252.421.583.519.993.058.282.092.453.102.512H37.99c-.49 0-.733.286-.733.862 0 .586.243.877.733.877h6.508c1.707 0 2.562 1.088 2.562 3.26 0 2.297-.855 3.449-2.562 3.449h-7.156c-1.364-.01-2.247-.297-2.65-.862-.364-.477-.547-.979-.547-1.505h9.085v-.005zm9.122-5.728c-.306 0-.562.104-.764.307-.173.205-.266.467-.273.788v3.244c.039.331.134.566.287.702.212.195.465.306.762.336h9.214c0 .311-.031.576-.1.788-.116.4-.384.823-.805 1.273-.45.437-1.206.662-2.26.672l-6.84-.015c-1.18-.04-2.06-.316-2.635-.833-.606-.536-.908-1.27-.908-2.206v-4.75c0-.923.307-1.665.92-2.22.607-.527 1.474-.794 2.608-.804h6.913c.797 0 1.527.292 2.19.877.336.292.594.692.776 1.199.095.34.144.556.144.642h-9.229zm29.632 3.828h4.088L84.03 9.323h-.058l-1.987 3.917zm8.325-6.43h12.18v2.805h-4.493v7.773h-3.194V9.615h-4.493V6.81zm17.66 2.602c-.306 0-.561.104-.761.307-.173.205-.266.467-.273.788v3.244c.04.331.134.566.287.702.21.195.466.306.763.336h9.214c0 .311-.035.576-.102.788-.115.4-.385.823-.806 1.273-.451.437-1.206.662-2.26.672l-6.84-.015c-1.181-.04-2.06-.316-2.635-.833-.604-.536-.908-1.27-.908-2.206v-4.75c0-.923.307-1.665.92-2.22.604-.527 1.474-.794 2.608-.804h6.911c.796 0 1.526.292 2.189.877.336.292.594.692.776 1.199.096.34.144.556.144.642h-9.226zm10.394-2.602h3.197v3.768h6.738V6.81h3.196v10.578h-3.196V13.49h-6.738v3.902h-3.197V6.81z"/>
</svg>
