<svg viewBox="0 0 109 32" xmlns="http://www.w3.org/2000/svg">
  <path fill="#fff" d="M15.993.018C7.176.018.004 7.191.004 16.007s7.173 15.988 15.989 15.988 15.988-7.172 15.988-15.988C31.981 7.19 24.809.018 15.993.018"/>
  <path fill="#51a601" d="M1.58 16.007c0-7.96 6.453-14.412 14.413-14.412s14.411 6.453 14.411 14.412c0 7.959-6.452 14.412-14.411 14.412-7.96 0-14.412-6.453-14.412-14.412"/>
  <path fill="#fff" d="M29.717 21.257c.076-.204.147-.41.215-.619H17.85l.59-.755h8.369a.31.31 0 0 0 .315-.305.31.31 0 0 0-.315-.303h-7.893l.58-.741h4.257c.142 0 .259-.139.259-.31 0-.172-.117-.31-.26-.31H12.458l6.923-9.021H7.986v2.463h6.067l-6.355 8.242-1.308 1.656 3.96.003h1.084a2.886 2.886 0 0 1 5.35 0h12.933z"/>
  <path fill="#4d4d5a" d="M16.333 22.372a2.225 2.225 0 1 1-4.45 0 2.225 2.225 0 0 1 4.45 0zm47.718-2.739c-2.605 0-2.741-2.303-2.741-4.304 0-2.029.137-4.331 2.741-4.331 2.632 0 2.769 2.165 2.769 4.331 0 2.139-.137 4.304-2.769 4.304zm-5.538 8.252h2.797v-7.1c1.042.987 2.165 1.644 3.59 1.644 1.701 0 2.934-.767 3.73-1.809.767-.987.986-1.891.986-5.29 0-3.428-.22-4.332-.987-5.32-.795-1.04-2.028-1.809-3.728-1.809-1.425 0-2.714.658-3.591 1.618V8.366h-2.797v19.519zm24.88-7.868c-1.206 1.399-2.879 2.412-4.99 2.412-3.207 0-6.304-2.028-6.304-7.1 0-5.099 3.097-7.128 6.304-7.128 2.111 0 3.784 1.015 4.99 2.413l-2.056 1.837c-.686-.85-1.673-1.453-2.824-1.453-2.275 0-3.618 1.288-3.618 4.331 0 3.016 1.343 4.304 3.618 4.304 1.151 0 2.138-.603 2.824-1.452l2.056 1.836zm9.664-2.632c0 2.166-.795 2.412-3.125 2.412-1.891 0-2.632-.822-2.632-1.754 0-1.014.768-1.672 2.413-1.672h3.344v1.014zm0 4.88h2.797V12.78c0-3.427-2.358-4.579-5.785-4.579-2.083 0-3.619.549-4.688 2.03l2.194 1.672c.493-.796 1.178-1.07 2.631-1.07 2.002 0 2.851.467 2.851 1.782v1.453h-3.865c-2.989 0-4.524 1.892-4.524 4.113 0 2.412 1.81 4.249 4.908 4.249 1.891 0 2.851-.439 3.426-1.399h.055v1.234zm6.415-13.899h2.796v1.48h.055c.877-1.096 2.139-1.644 3.62-1.644 1.123 0 2.055.41 2.905 1.069l-2.029 2.412c-.658-.493-1.124-.685-1.836-.685-1.371 0-2.714.877-2.714 2.906v8.361h-2.796V8.366zm8.827 13.008a.976.976 0 1 1-1.953.001.976.976 0 0 1 1.953 0zm-2.159 0c.001.652.53 1.181 1.182 1.182.652-.001 1.18-.53 1.182-1.182a1.184 1.184 0 0 0-1.182-1.182c-.652.001-1.18.53-1.182 1.182zm1.507.681h.257l-.39-.599c.2-.027.35-.13.35-.374 0-.269-.156-.389-.479-.389h-.515v1.363h.205v-.594h.217l.355.593zm-.572-.762v-.431h.277c.211 0 .308.063.308.217 0 .15-.097.214-.308.214h-.277zm-69.07-1.248l6.964-9.212h-6.58V8.366h9.98v2.22l-6.964 9.047h6.963v2.632H38.006v-2.22zM51.59 8.366h2.797v13.899H51.59V8.366zm0-5.62h2.797v2.796H51.59V2.746z"/>
</svg>
