<svg xmlns="http://www.w3.org/2000/svg" viewBox="0 0 135 20">
  <path fill="#8dc63f" d="M19.253 19.469c-.648.095-1.216.224-1.789.255-3.639.196-7.201-.065-10.519-1.806-3.03-1.591-4.989-4.079-6.037-7.323C-.04 7.661-.136 4.642.128 1.596L.246.232C.678.157 1.02.063 1.366.045c3.433-.178 6.792.136 9.936 1.679 2.428 1.191 4.348 2.959 5.701 5.335 1.305 2.291 1.984 4.777 2.177 7.394.106 1.437.093 2.883.126 4.325.005.202-.031.407-.053.691"/>
  <path fill="#2C2427" d="M32.163 3.887v13.145h6.808v2.682h-9.81V3.887zM50.454 18.505C49.105 19.517 47.539 20 45.798 20c-3.458 0-5.546-2.11-5.546-6.001 0-3.737 2.154-6.154 5.568-6.154 3.176 0 4.938 1.868 4.938 5.627 0 .263-.021 1.23-.044 1.428h-7.417c.13 1.583.892 2.682 2.849 2.682 1.153 0 2.088-.308 3.372-.989l.936 1.912zm-2.458-5.715c0-1.473-.522-2.748-2.154-2.748-1.914 0-2.479 1.802-2.523 2.748h4.677zM62.305 19.714H60l-.305-1.561c-.826 1.231-2 1.847-3.61 1.847-2.066 0-3.545-1.144-3.545-3.408 0-1.846 1.305-3.671 5.242-3.671.652 0 1.087.022 1.631.088v-.857c0-1.385-.717-1.979-1.958-1.979-1.392 0-2.283.44-3.393 1.1l-.979-1.758c1.24-.99 2.958-1.67 4.677-1.67 2.871 0 4.545 1.252 4.545 4.264v7.605zm-2.893-4.77c-.326-.066-.783-.11-1.37-.11-1.566 0-2.631.417-2.631 1.714 0 .857.543 1.297 1.565 1.297 1.501 0 2.436-1.385 2.436-2.594v-.307zM67.696 9.778c.544-1.078 1.479-1.934 2.545-1.934.414 0 .805.11 1.131.242l-.218 2.66a3.516 3.516 0 00-1.087-.154c-.871 0-1.675.791-2.045 1.429v7.693H65.13V8.108h2.306l.26 1.67zM75.611 8.107l.239 1.539c.828-.967 2.11-1.802 3.72-1.802 2.414 0 3.632 1.561 3.632 4.088v7.782H80.31v-6.902c0-1.736-.587-2.484-1.805-2.484-1.153 0-2.066.879-2.414 1.297v8.089h-2.893V8.107h2.413zM87.638 3.624c1.022 0 1.74.527 1.74 1.517 0 .944-.718 1.472-1.74 1.472-.956 0-1.718-.528-1.718-1.472-.001-.99.762-1.517 1.718-1.517m1.392 16.09h-2.871V8.107h2.871v11.607zM93.987 8.107l2.524 8.771 2.523-8.771h2.914l-3.784 11.607h-3.371L90.964 8.107zM108.581 7.844c3.263 0 5.677 2.088 5.677 6.066 0 3.957-2.479 6.089-5.83 6.089-3.437 0-5.59-2.132-5.59-6.023 0-4 2.458-6.132 5.743-6.132m-.044 9.694c1.544 0 2.675-1.033 2.675-3.627 0-2.572-1.131-3.649-2.675-3.649s-2.654 1.165-2.654 3.649c0 2.593 1.11 3.627 2.654 3.627M119.279 9.778c.544-1.078 1.479-1.934 2.545-1.934.414 0 .805.11 1.131.242l-.218 2.66a3.522 3.522 0 00-1.088-.154c-.87 0-1.674.791-2.044 1.429v7.693h-2.894V8.108h2.306l.262 1.67zM134.242 18.505c-1.348 1.012-2.914 1.495-4.654 1.495-3.458 0-5.547-2.11-5.547-6.001 0-3.737 2.153-6.154 5.569-6.154 3.175 0 4.937 1.868 4.937 5.627 0 .263-.021 1.23-.044 1.428h-7.416c.13 1.583.891 2.682 2.85 2.682 1.152 0 2.087-.308 3.37-.989l.935 1.912zm-2.458-5.715c0-1.473-.521-2.748-2.152-2.748-1.915 0-2.48 1.802-2.523 2.748h4.675z"/>
  <path fill="none" d="M0 0h134.546v20H0z"/>
</svg>
