<svg viewBox="0 0 101 32" xmlns="http://www.w3.org/2000/svg">
  <path d="M6.372 14.07c1.686 0 2.804-.29 3.705-.696v-2.593c-.666.27-1.529.542-2.862.542-2.431 0-3.274-1.355-3.274-3.833v-.58c0-2.497 1.196-3.523 3.313-3.523 1.137 0 1.902.174 2.686.465V1.2C9.195.832 8.156.639 6.51.639 2.881.639 0 2.419 0 7.16v.445c0 4.413 2.372 6.465 6.372 6.465zM11.764 13.839h3.352V7.103c.55-.27 1.314-.464 2.196-.464.275 0 .647.077.863.116V3.852a1.933 1.933 0 0 0-.588-.078 3.08 3.08 0 0 0-2.51 1.297h-.098v-1.2h-3.215v9.968z"/>
  <path d="M24.296 5.864c.98 0 1.47.523 1.47 1.975h-3.058c.137-1.549.843-1.975 1.588-1.975zm.373 8.168c1.862 0 3.117-.445 3.882-.89V11.11c-.785.31-1.824.6-3.02.6-1.705 0-2.607-.446-2.803-2.013h6.234v-.852c0-3.27-1.274-5.148-4.666-5.148-3.02 0-4.96 1.935-4.96 5.013v.251c0 3.29 1.745 5.071 5.333 5.071zM35.505 11.632c-1.117 0-1.843-.522-1.843-2.651v-.29c0-2.13.706-2.75 1.882-2.75.628.001 1.118.175 1.392.35v4.896a2.407 2.407 0 0 1-1.43.445zm-1.274 2.4c1.235 0 2.137-.31 2.823-.948h.118l.215.755h2.863V0h-3.314v4.123c-.333-.194-1.039-.426-2.117-.426-2.666 0-4.588 1.451-4.588 5.206v.213c0 3.523 1.882 4.916 4 4.916zM42.38 2.748h3.391V.232H42.38v2.516zm.02 11.11h3.352V3.871h-3.353v9.987z"/>
  <path d="M51.775 13.994c1.078 0 1.823-.194 2.235-.388v-2.129a5.142 5.142 0 0 1-1 .097c-.804 0-1.098-.213-1.098-.91v-4.49h2.039V3.89h-2.039V1.53h-3.353V3.89h-1.254v2.284h1.254v4.974c0 2.188 1.196 2.846 3.216 2.846zM66.912 14.07c1.686 0 2.804-.29 3.706-.696v-2.593c-.666.27-1.529.542-2.862.542-2.431 0-3.275-1.355-3.275-3.833v-.58c0-2.497 1.197-3.523 3.314-3.523 1.137 0 1.901.174 2.686.465V1.2C69.736.832 68.697.639 67.05.639c-3.627 0-6.51 1.78-6.51 6.522v.445c0 4.413 2.373 6.465 6.372 6.465z"/>
  <path d="M76.127 11.961c-.627 0-1.078-.251-1.078-1.103 0-.735.333-1.045 1.117-1.123l1.177-.116v1.936c-.216.232-.686.406-1.216.406zm-1.136 2.071c1.254 0 2.156-.348 2.588-.948h.098l.234.774h2.765V6.755c0-2.265-1.53-3.058-4.019-3.058-1.569 0-2.902.174-3.941.58v2.168c.686-.155 1.647-.29 2.666-.29 1.451 0 1.961.213 1.961 1.277v.407l-1.843.27c-2.176.291-3.647.988-3.647 3.097 0 1.917 1.294 2.826 3.138 2.826z"/>
  <path d="M82.72 13.839h3.353V7.103c.549-.27 1.313-.464 2.196-.464.274 0 .646.077.862.116V3.852a1.931 1.931 0 0 0-.588-.078c-1.059 0-1.98.542-2.51 1.297h-.097v-1.2H82.72v9.968z"/>
  <path d="M95.606 11.632c-1.118 0-1.843-.522-1.843-2.651v-.29c0-2.13.705-2.75 1.881-2.75.628.001 1.118.175 1.392.35v4.896a2.405 2.405 0 0 1-1.43.445zm-1.275 2.4c1.235 0 2.137-.31 2.823-.948h.118l.215.755h2.863V0h-3.313v4.123c-.334-.194-1.04-.426-2.118-.426-2.666 0-4.587 1.451-4.587 5.206v.213c0 3.523 1.882 4.916 3.999 4.916zM.98 31.826h1.55v-5.574h2.509l3.274 5.574h1.764l-3.49-5.845v-.097c1.628-.503 2.569-1.549 2.569-3.407 0-2.341-1.45-3.638-4.353-3.638H.98v12.987zm1.55-6.774v-4.916h2.156c2.02 0 2.823.754 2.823 2.36 0 1.685-.745 2.556-2.804 2.556H2.53zM16.06 32c1.568 0 2.686-.484 3.274-.89v-1.104c-.882.407-1.745.717-3.04.717-2.077 0-3.234-.93-3.313-3.33h6.627v-.832c0-2.98-1.255-4.51-3.92-4.51-2.236 0-4.236 1.491-4.236 4.84v.27c0 3 1.55 4.839 4.608 4.839zm-.412-8.748c1.588 0 2.392.87 2.392 2.96h-5.058c.156-2.264 1.45-2.96 2.666-2.96z"/>
  <path d="M24.414 31.826h1.49l3.608-9.6h-1.47l-2.805 7.722h-.078l-2.725-7.722h-1.627z"/>
  <path d="M31.476 31.826h1.49v-9.58h-1.49v9.58zm-.02-11.516h1.53V18.76h-1.53v1.549zM39.858 32c1.569 0 2.687-.484 3.275-.89v-1.104c-.883.407-1.745.717-3.04.717-2.077 0-3.234-.93-3.313-3.33h6.627v-.832c0-2.98-1.255-4.51-3.921-4.51-2.235 0-4.235 1.491-4.235 4.84v.27c0 3 1.549 4.839 4.608 4.839zm-.411-8.748c1.588 0 2.392.87 2.392 2.96H36.78c.157-2.264 1.451-2.96 2.667-2.96z"/>
  <path d="M47.544 31.826h1.53l2.293-7.316h.059l2.255 7.316h1.51l2.764-9.6h-1.431l-2 7.684h-.079l-2.352-7.684h-1.295l-2.333 7.684h-.078l-2-7.684H44.78zM62.396 31.98c2.137 0 3.431-1.006 3.431-2.825 0-1.665-.764-2.284-2.627-2.768l-.98-.27c-1.04-.291-1.451-.64-1.451-1.472 0-.89.647-1.335 1.96-1.335 1.079 0 2.059.251 2.569.503v-1.2c-.51-.271-1.353-.561-2.647-.561-2.235 0-3.314 1.103-3.314 2.729 0 1.625.961 2.264 2.373 2.651l.96.252c1.236.348 1.687.735 1.687 1.626 0 .87-.627 1.413-2.176 1.413-1.373 0-2.078-.29-2.922-.6v1.18c.804.445 1.863.678 3.137.678z"/>
</svg>
