<svg viewBox="0 0 160 36" xmlns="http://www.w3.org/2000/svg">
  <path fill="#fffffe" stroke="#1a1919" stroke-width="3" d="M33.906 17.977c0 8.773-7.111 15.885-15.884 15.885S2.138 26.75 2.138 17.977c0-8.772 7.111-15.884 15.884-15.884s15.884 7.112 15.884 15.884z"/>
  <path fill="#1a1919" d="M8.942 9.494h17.831v4.688h-6.365v14.295h-5.101V14.182H8.942V9.494M37.723 8.82h2.633l1.016 3.942L42.38 8.82h2.631v6.48h-1.64v-4.942L42.109 15.3h-1.484l-1.261-4.94v4.94h-1.64V8.82M49.37 13.072a8.647 8.647 0 0 1-.774.234c-.366.098-.597.193-.694.287a.45.45 0 0 0-.15.332c0 .141.049.257.148.346.098.09.243.136.435.136.2 0 .387-.049.56-.146a.882.882 0 0 0 .366-.356 1.19 1.19 0 0 0 .108-.546v-.287zm-1.56-.946l-1.72-.181c.064-.3.158-.537.28-.71.123-.172.299-.321.528-.448.165-.091.392-.162.681-.212.289-.05.601-.075.937-.075.54 0 .973.03 1.3.09.327.06.6.187.817.378.153.133.274.32.363.564.088.243.132.475.132.696V14.3c0 .221.014.395.042.52.028.125.089.285.184.48h-1.689a1.751 1.751 0 0 1-.133-.277 2.047 2.047 0 0 1-.061-.298c-.236.227-.47.389-.703.486-.318.13-.688.194-1.11.194-.56 0-.984-.13-1.274-.388a1.235 1.235 0 0 1-.436-.96c0-.356.105-.65.314-.879.21-.23.595-.4 1.158-.513.675-.135 1.112-.23 1.313-.285.2-.054.412-.126.636-.214 0-.221-.046-.376-.137-.464-.091-.089-.252-.133-.482-.133-.295 0-.515.047-.663.142-.115.073-.207.212-.278.415zM51.888 13.995l1.786-.167c.073.212.176.363.309.455.133.091.31.137.53.137.242 0 .43-.052.562-.155a.344.344 0 0 0 .155-.287c0-.129-.068-.229-.204-.3-.097-.05-.355-.111-.773-.185-.625-.109-1.059-.21-1.302-.302a1.374 1.374 0 0 1-.614-.47 1.223 1.223 0 0 1-.25-.755c0-.31.09-.576.27-.8.18-.223.427-.39.742-.5.315-.111.739-.166 1.269-.166.56 0 .973.042 1.24.128.266.085.488.218.667.397.178.18.326.424.444.73l-1.706.168a.584.584 0 0 0-.221-.332.901.901 0 0 0-.513-.141c-.203 0-.351.036-.444.108a.324.324 0 0 0-.14.262c0 .115.06.202.178.26.118.06.374.113.769.16.598.067 1.042.162 1.335.282.291.121.514.293.67.517.154.224.231.47.231.737 0 .27-.082.534-.245.79-.164.257-.422.46-.774.612-.352.152-.831.227-1.438.227-.858 0-1.468-.122-1.832-.367a1.649 1.649 0 0 1-.7-1.043M57.417 13.995l1.786-.167c.073.212.177.363.309.455.133.091.31.137.53.137.242 0 .43-.052.562-.155a.345.345 0 0 0 .155-.287c0-.129-.069-.229-.204-.3-.097-.05-.355-.111-.773-.185-.625-.109-1.059-.21-1.302-.302a1.374 1.374 0 0 1-.614-.47 1.223 1.223 0 0 1-.25-.755c0-.31.09-.576.27-.8.18-.223.427-.39.742-.5.315-.111.738-.166 1.269-.166.56 0 .973.042 1.24.128.266.085.488.218.667.397.178.18.326.424.444.73l-1.706.168a.583.583 0 0 0-.221-.332.9.9 0 0 0-.513-.141c-.203 0-.351.036-.444.108a.323.323 0 0 0-.14.262c0 .115.06.202.178.26.117.06.374.113.769.16.598.067 1.043.162 1.334.282.292.121.515.293.67.517.154.224.232.47.232.737 0 .27-.082.534-.246.79-.163.257-.42.46-.773.612-.352.152-.831.227-1.438.227-.858 0-1.468-.122-1.832-.367a1.648 1.648 0 0 1-.7-1.043M66.464 13.072a8.647 8.647 0 0 1-.773.234c-.366.098-.597.193-.694.287a.45.45 0 0 0-.15.332c0 .141.049.257.147.346.1.09.245.136.436.136.2 0 .387-.049.559-.146a.883.883 0 0 0 .367-.356 1.19 1.19 0 0 0 .108-.546v-.287zm-1.56-.946l-1.72-.181c.065-.3.16-.537.281-.71.123-.172.299-.321.529-.448.164-.091.391-.162.68-.212.289-.05.601-.075.937-.075.54 0 .972.03 1.3.09.327.06.6.187.817.378.153.133.274.32.362.564.089.243.133.475.133.696V14.3c0 .221.014.395.042.52.028.125.09.285.184.48H66.76a1.737 1.737 0 0 1-.132-.277 2.047 2.047 0 0 1-.062-.298c-.236.227-.47.389-.703.486-.318.13-.688.194-1.11.194-.56 0-.984-.13-1.274-.388a1.236 1.236 0 0 1-.435-.96c0-.356.104-.65.313-.879.21-.23.595-.4 1.158-.513a25.74 25.74 0 0 0 1.313-.285c.2-.054.412-.126.636-.214 0-.221-.046-.376-.137-.464-.091-.089-.252-.133-.481-.133-.295 0-.516.047-.664.142-.114.073-.207.212-.278.415zM72.802 13.461l1.71.194c-.094.357-.249.665-.464.926-.215.26-.49.463-.824.608-.335.144-.76.216-1.275.216-.498 0-.913-.046-1.244-.139a2.172 2.172 0 0 1-.856-.45 2.279 2.279 0 0 1-.56-.73c-.136-.28-.204-.652-.204-1.114 0-.482.082-.884.247-1.205.121-.236.286-.447.496-.633.208-.188.424-.327.645-.418.35-.144.8-.216 1.348-.216.766 0 1.35.137 1.752.41.402.275.684.675.847 1.203l-1.693.225a.784.784 0 0 0-.29-.453c-.14-.102-.328-.152-.563-.152a.909.909 0 0 0-.723.32c-.184.213-.276.535-.276.968 0 .385.091.678.274.878.183.2.415.3.698.3a.96.96 0 0 0 .595-.181c.16-.121.28-.307.36-.557M75.184 8.82h1.799v2.387c.244-.254.487-.435.73-.544.24-.11.526-.163.856-.163.49 0 .875.149 1.156.446.281.298.422.754.422 1.37V15.3H78.34v-2.58c0-.296-.055-.504-.164-.626-.109-.123-.262-.183-.46-.183a.654.654 0 0 0-.53.247c-.136.165-.203.46-.203.888V15.3h-1.799V8.82M86.167 15.3h-1.68v-.761c-.25.313-.503.535-.758.667-.255.133-.568.2-.939.2-.495 0-.883-.149-1.164-.445-.281-.296-.422-.752-.422-1.368v-2.987h1.807v2.58c0 .296.054.505.163.628.11.124.263.186.46.186a.654.654 0 0 0 .528-.247c.138-.166.206-.462.206-.889v-2.258h1.8v4.693M86.94 13.995l1.785-.167c.074.212.177.363.31.455.132.091.31.137.53.137.242 0 .429-.052.562-.155a.345.345 0 0 0 .154-.287c0-.129-.067-.229-.203-.3-.097-.05-.355-.111-.773-.185-.625-.109-1.059-.21-1.302-.302a1.37 1.37 0 0 1-.614-.47 1.219 1.219 0 0 1-.25-.755c0-.31.09-.576.27-.8.18-.223.427-.39.742-.5.315-.111.738-.166 1.269-.166.559 0 .973.042 1.239.128.267.085.49.218.668.397.178.18.326.424.443.73l-1.705.168a.583.583 0 0 0-.221-.332.901.901 0 0 0-.513-.141c-.203 0-.351.036-.444.108a.323.323 0 0 0-.14.262c0 .115.06.202.177.26.118.06.374.113.77.16.598.067 1.043.162 1.334.282.292.121.515.293.67.517.154.224.232.47.232.737 0 .27-.082.534-.246.79-.163.257-.42.46-.773.612-.352.152-.832.227-1.438.227-.858 0-1.469-.122-1.832-.367a1.647 1.647 0 0 1-.7-1.043M96.168 12.537c-.035-.348-.129-.597-.28-.747-.152-.15-.352-.225-.6-.225a.815.815 0 0 0-.684.34c-.11.142-.179.352-.208.632h1.772zm1.83.862h-3.607c.033.289.111.504.235.645.173.203.4.305.68.305.177 0 .345-.044.504-.133.098-.055.202-.154.314-.296l1.772.164c-.27.471-.598.81-.981 1.014-.383.205-.933.307-1.649.307-.621 0-1.11-.087-1.467-.263a2.15 2.15 0 0 1-.886-.835c-.234-.381-.35-.83-.35-1.346 0-.733.234-1.327.704-1.78.47-.454 1.119-.681 1.947-.681.671 0 1.201.101 1.59.305.39.203.685.498.889.883.203.386.305.889.305 1.508v.203zM100.994 8.82v1.786h.99v1.317h-.99v1.663c0 .2.02.332.058.397.059.1.162.15.31.15.132 0 .317-.039.556-.115l.133 1.242c-.445.097-.86.145-1.247.145-.448 0-.777-.057-.99-.172a1.05 1.05 0 0 1-.47-.523c-.102-.234-.153-.613-.153-1.136v-1.651h-.662v-1.317h.662v-.862l1.803-.924M105.012 8.82v1.786h.99v1.317h-.99v1.663c0 .2.019.332.057.397.059.1.162.15.31.15.132 0 .318-.039.557-.115l.132 1.242c-.445.097-.86.145-1.246.145-.448 0-.778-.057-.99-.172a1.05 1.05 0 0 1-.47-.523c-.103-.234-.154-.613-.154-1.136v-1.651h-.663v-1.317h.663v-.862l1.804-.924M106.54 13.995l1.787-.167c.073.212.176.363.309.455.133.091.31.137.53.137.242 0 .429-.052.561-.155a.346.346 0 0 0 .156-.287c0-.129-.068-.229-.204-.3-.097-.05-.355-.111-.774-.185-.624-.109-1.058-.21-1.3-.302a1.373 1.373 0 0 1-.615-.47 1.225 1.225 0 0 1-.25-.755c0-.31.09-.576.27-.8.18-.223.427-.39.742-.5.316-.111.738-.166 1.269-.166.56 0 .973.042 1.24.128.266.085.488.218.666.397.178.18.327.424.445.73l-1.706.168a.584.584 0 0 0-.221-.332.902.902 0 0 0-.513-.141c-.203 0-.352.036-.444.108a.322.322 0 0 0-.139.262c0 .115.058.202.177.26.117.06.374.113.768.16.598.067 1.044.162 1.335.282.292.121.515.293.67.517.154.224.231.47.231.737 0 .27-.081.534-.244.79-.164.257-.422.46-.774.612-.352.152-.832.227-1.439.227-.857 0-1.467-.122-1.832-.367a1.651 1.651 0 0 1-.7-1.043M117.55 13.907h1.021c.345 0 .588-.06.73-.183a.619.619 0 0 0 .212-.493.571.571 0 0 0-.21-.462c-.14-.116-.385-.175-.736-.175h-1.017v1.313zm0-2.546h.871c.312 0 .53-.053.652-.16.122-.108.183-.264.183-.467a.552.552 0 0 0-.183-.442c-.123-.106-.336-.16-.639-.16h-.884v1.23zm-2.02-2.54h3.748c.625 0 1.104.154 1.439.463.334.31.501.693.501 1.15 0 .383-.118.71-.358.985-.159.183-.391.327-.698.433.466.112.808.304 1.028.577.22.272.329.615.329 1.027 0 .336-.078.638-.234.906-.156.269-.37.48-.64.637-.169.097-.422.168-.761.212a8.76 8.76 0 0 1-.898.088h-3.456V8.82zM125.647 13.072a8.668 8.668 0 0 1-.773.234c-.366.098-.597.193-.694.287a.452.452 0 0 0-.15.332c0 .141.049.257.147.346.099.09.244.136.436.136.2 0 .386-.049.56-.146a.884.884 0 0 0 .366-.356 1.2 1.2 0 0 0 .108-.546v-.287zm-1.56-.946l-1.72-.181c.066-.3.159-.537.281-.71.122-.172.298-.321.528-.448.165-.091.392-.162.68-.212.29-.05.602-.075.938-.075.54 0 .972.03 1.3.09.327.06.599.187.817.378.153.133.274.32.363.564.087.243.132.475.132.696V14.3c0 .221.014.395.042.52.028.125.089.285.183.48h-1.688a1.751 1.751 0 0 1-.133-.277 2.125 2.125 0 0 1-.062-.298c-.235.227-.47.389-.702.486a2.93 2.93 0 0 1-1.11.194c-.559 0-.984-.13-1.275-.388a1.236 1.236 0 0 1-.435-.96c0-.356.105-.65.314-.879.21-.23.595-.4 1.158-.513a25.74 25.74 0 0 0 1.312-.285c.2-.054.413-.126.637-.214 0-.221-.046-.376-.137-.464-.092-.089-.252-.133-.482-.133-.294 0-.515.047-.663.142-.115.073-.207.212-.278.415zM127.967 10.606h1.898l.968 3.124.9-3.124h1.772l-1.862 5.015c-.212.572-.429.958-.65 1.159-.312.282-.787.424-1.427.424-.259 0-.66-.035-1.201-.106l-.142-1.255c.26.083.548.124.866.124.212 0 .384-.05.515-.146.13-.098.242-.272.333-.523l-1.97-4.692M37.29 19.682h6.086v1.6h-2.042v4.88h-2.002v-4.88H37.29v-1.6M43.792 21.467h1.684v.77c.162-.334.329-.563.501-.688a1.06 1.06 0 0 1 .638-.188c.266 0 .556.083.871.248l-.557 1.281c-.211-.088-.38-.132-.503-.132a.621.621 0 0 0-.548.291c-.186.275-.279.787-.279 1.538v1.574h-1.807v-4.694M51.146 23.933c-.248.09-.505.167-.774.235-.365.097-.596.193-.694.287a.45.45 0 0 0-.15.331c0 .142.05.257.148.347.099.09.244.135.436.135.2 0 .386-.048.559-.146a.88.88 0 0 0 .367-.356c.072-.14.108-.321.108-.545v-.288zm-1.56-.945l-1.72-.182c.065-.3.159-.537.281-.709.123-.172.299-.322.528-.448.165-.092.392-.162.68-.213.29-.05.602-.075.938-.075.539 0 .972.03 1.299.09.327.061.6.187.818.379.153.132.274.32.362.563.089.243.133.475.133.696v2.073c0 .22.014.394.042.52.028.124.089.284.183.48h-1.688a1.71 1.71 0 0 1-.132-.277 2.024 2.024 0 0 1-.063-.298c-.235.226-.47.388-.702.485-.319.13-.688.195-1.11.195-.56 0-.985-.13-1.275-.39a1.234 1.234 0 0 1-.435-.958c0-.357.105-.65.314-.88.209-.23.595-.4 1.158-.512.674-.136 1.112-.23 1.312-.285.2-.054.413-.126.637-.215 0-.22-.046-.375-.137-.464-.091-.088-.252-.132-.482-.132-.294 0-.515.047-.663.14-.115.075-.208.213-.278.417zM53.983 21.467h1.675v.765c.25-.312.504-.536.76-.67.257-.134.569-.2.937-.2.498 0 .888.147 1.17.443.28.297.421.754.421 1.373v2.983H57.14V23.58c0-.295-.055-.503-.164-.625-.109-.123-.262-.184-.46-.184a.654.654 0 0 0-.53.247c-.135.166-.203.462-.203.889v2.254h-1.8v-4.694M59.702 24.857l1.786-.168c.073.213.176.364.309.456.133.091.31.136.53.136.242 0 .43-.051.562-.154a.346.346 0 0 0 .155-.287c0-.13-.069-.23-.204-.3-.097-.05-.355-.112-.773-.185-.625-.11-1.059-.21-1.302-.303a1.376 1.376 0 0 1-.614-.47 1.221 1.221 0 0 1-.25-.754c0-.31.09-.576.27-.8a1.6 1.6 0 0 1 .742-.5c.315-.111.738-.167 1.269-.167.56 0 .973.043 1.24.128.266.086.488.219.667.398.178.18.326.423.444.73l-1.706.167a.584.584 0 0 0-.221-.331.906.906 0 0 0-.513-.142c-.203 0-.351.037-.444.109a.323.323 0 0 0-.14.262c0 .115.06.202.178.26.117.06.374.113.768.16.599.067 1.044.161 1.335.282.292.12.515.293.67.516.155.224.232.47.232.738 0 .27-.082.534-.245.79-.164.256-.422.46-.774.612-.352.151-.832.227-1.438.227-.858 0-1.469-.122-1.833-.367a1.646 1.646 0 0 1-.7-1.043M67.361 23.828c0 .37.078.646.235.826a.75.75 0 0 0 .592.27c.209 0 .384-.087.526-.26.141-.171.212-.464.212-.876 0-.38-.074-.66-.221-.838a.675.675 0 0 0-.54-.267c-.229 0-.42.09-.574.27-.153.179-.23.47-.23.875zm-1.803 4.118v-6.479h1.684v.694c.232-.291.446-.489.64-.592.263-.139.553-.208.871-.208.628 0 1.113.24 1.457.72.343.48.514 1.075.514 1.782 0 .78-.187 1.376-.56 1.788-.375.41-.848.616-1.42.616a1.97 1.97 0 0 1-.757-.142 1.813 1.813 0 0 1-.613-.42v2.241h-1.816zM73.169 23.823c0 .418.084.728.254.928.169.2.382.3.638.3.26 0 .473-.098.64-.296.165-.197.249-.514.249-.95 0-.406-.084-.71-.252-.908a.784.784 0 0 0-.623-.298.815.815 0 0 0-.65.302c-.17.202-.256.51-.256.922zm-1.803.005c0-.717.241-1.307.724-1.77.483-.465 1.136-.697 1.958-.697.94 0 1.65.273 2.13.817.386.44.58.98.58 1.623 0 .722-.24 1.313-.719 1.774-.478.461-1.14.692-1.986.692-.755 0-1.364-.191-1.83-.575-.572-.474-.857-1.096-.857-1.864zM77.641 21.467h1.684v.77c.162-.334.33-.563.502-.688a1.06 1.06 0 0 1 .638-.188c.266 0 .556.083.871.248l-.557 1.281c-.212-.088-.38-.132-.504-.132a.621.621 0 0 0-.548.291c-.185.275-.278.787-.278 1.538v1.574H77.64v-4.694M84.262 19.682v1.785h.99v1.317h-.99v1.663c0 .2.02.333.057.397.06.1.162.15.31.15.132 0 .318-.038.556-.114l.133 1.24c-.445.099-.86.147-1.246.147-.448 0-.778-.057-.99-.172a1.053 1.053 0 0 1-.471-.523c-.102-.234-.152-.613-.152-1.137v-1.651h-.663v-1.317h.663v-.862l1.803-.923M89.309 23.933c-.247.09-.505.167-.773.235-.366.097-.597.193-.695.287a.452.452 0 0 0-.15.331c0 .142.05.257.149.347.098.09.243.135.435.135.2 0 .387-.048.559-.146a.883.883 0 0 0 .367-.356c.072-.14.108-.321.108-.545v-.288zm-1.56-.945l-1.72-.182c.065-.3.16-.537.281-.709.123-.172.3-.322.529-.448.164-.092.391-.162.68-.213.289-.05.601-.075.937-.075.54 0 .972.03 1.3.09.326.061.599.187.818.379.152.132.273.32.361.563.089.243.133.475.133.696v2.073c0 .22.014.394.042.52.028.124.09.284.184.48h-1.689a1.703 1.703 0 0 1-.132-.277 1.988 1.988 0 0 1-.062-.298c-.236.226-.47.388-.703.485-.318.13-.688.195-1.11.195-.56 0-.984-.13-1.274-.39a1.233 1.233 0 0 1-.436-.958c0-.357.105-.65.314-.88.209-.23.595-.4 1.158-.512a26.1 26.1 0 0 0 1.313-.285c.2-.054.412-.126.636-.215 0-.22-.046-.375-.137-.464-.091-.088-.252-.132-.482-.132-.294 0-.515.047-.663.14-.115.075-.208.213-.278.417zM94.162 19.682v1.785h.99v1.317h-.99v1.663c0 .2.02.333.057.397.059.1.162.15.31.15.132 0 .318-.038.556-.114l.133 1.24c-.445.099-.86.147-1.246.147-.448 0-.778-.057-.99-.172a1.053 1.053 0 0 1-.471-.523c-.102-.234-.152-.613-.152-1.137v-1.651h-.663v-1.317h.663v-.862l1.803-.923M96.076 26.161h1.798v-4.694h-1.798v4.694zm0-5.255h1.798v-1.224h-1.798v1.224zM100.606 23.823c0 .418.084.728.254.928.169.2.382.3.638.3.26 0 .473-.098.64-.296.165-.197.248-.514.248-.95 0-.406-.083-.71-.252-.908a.782.782 0 0 0-.622-.298.817.817 0 0 0-.65.302c-.171.202-.256.51-.256.922zm-1.804.005c0-.717.242-1.307.725-1.77.483-.465 1.136-.697 1.958-.697.94 0 1.65.273 2.13.817.386.44.58.98.58 1.623 0 .722-.24 1.313-.72 1.774-.478.461-1.14.692-1.986.692-.754 0-1.363-.191-1.83-.575-.57-.474-.857-1.096-.857-1.864zM105.06 21.467h1.675v.765c.251-.312.504-.536.761-.67.256-.134.569-.2.937-.2.498 0 .887.147 1.169.443.281.297.421.754.421 1.373v2.983h-1.807V23.58c0-.295-.055-.503-.164-.625-.109-.123-.262-.184-.46-.184a.654.654 0 0 0-.53.247c-.135.166-.203.462-.203.889v2.254h-1.798v-4.694M117.803 23.69l-.714-2.329-.709 2.33h1.423zm.416 1.401h-2.273l-.316 1.07h-2.044l2.435-6.48h2.184l2.434 6.48h-2.096l-.324-1.07zM126.014 26.161h-1.68v-.76c-.25.312-.503.535-.758.667-.254.133-.567.199-.939.199-.495 0-.883-.148-1.164-.444-.282-.296-.423-.752-.423-1.368v-2.988h1.808v2.581c0 .295.055.504.164.628.108.123.262.186.46.186a.656.656 0 0 0 .528-.248c.136-.165.205-.46.205-.888v-2.259h1.799v4.694M129.276 19.682v1.785h.99v1.317h-.99v1.663c0 .2.018.333.057.397.058.1.161.15.31.15.132 0 .317-.038.556-.114l.133 1.24c-.446.099-.86.147-1.246.147-.449 0-.778-.057-.99-.172a1.052 1.052 0 0 1-.471-.523c-.102-.234-.153-.613-.153-1.137v-1.651h-.663v-1.317h.663v-.862l1.804-.923M131.123 19.682h1.799v2.387c.244-.254.487-.435.729-.544.241-.11.527-.164.857-.164.49 0 .875.15 1.156.447.281.297.422.754.422 1.37v2.983h-1.807V23.58c0-.295-.055-.503-.164-.625-.11-.123-.263-.184-.46-.184a.654.654 0 0 0-.53.247c-.136.166-.203.462-.203.889v2.254h-1.8v-6.48M138.742 23.823c0 .418.085.728.255.928.169.2.382.3.638.3.26 0 .472-.098.639-.296.166-.197.25-.514.25-.95 0-.406-.085-.71-.253-.908a.784.784 0 0 0-.623-.298.816.816 0 0 0-.65.302c-.17.202-.256.51-.256.922zm-1.803.005c0-.717.241-1.307.725-1.77.483-.465 1.135-.697 1.958-.697.94 0 1.65.273 2.13.817.386.44.58.98.58 1.623 0 .722-.24 1.313-.72 1.774-.478.461-1.14.692-1.986.692-.754 0-1.364-.191-1.83-.575-.57-.474-.857-1.096-.857-1.864zM143.215 21.467h1.684v.77c.162-.334.33-.563.502-.688a1.06 1.06 0 0 1 .638-.188c.265 0 .555.083.87.248l-.556 1.281c-.213-.088-.38-.132-.504-.132a.622.622 0 0 0-.548.291c-.186.275-.279.787-.279 1.538v1.574h-1.807v-4.694M147.281 26.161h1.799v-4.694h-1.799v4.694zm0-5.255h1.799v-1.224h-1.799v1.224zM152.399 19.682v1.785h.99v1.317h-.99v1.663c0 .2.019.333.057.397.06.1.162.15.31.15.132 0 .318-.038.556-.114l.133 1.24c-.445.099-.86.147-1.246.147-.448 0-.778-.057-.99-.172a1.053 1.053 0 0 1-.471-.523c-.101-.234-.152-.613-.152-1.137v-1.651h-.664v-1.317h.664v-.862l1.803-.923M153.73 21.467h1.897l.968 3.125.9-3.125h1.772l-1.862 5.016c-.212.571-.429.958-.65 1.158-.312.283-.788.425-1.427.425-.259 0-.66-.035-1.201-.106l-.142-1.255c.26.082.548.123.866.123.212 0 .383-.049.515-.146.13-.097.242-.272.333-.522l-1.97-4.693"/>
</svg>
