<svg viewBox="0 0 121 32" xmlns="http://www.w3.org/2000/svg">
  <path fill="#000" d="M57.645 17.848l4.417-7.933-5.273-9.42h-9.6z"/>
  <path fill="#000" d="M45.07.496h-1.983v11.448H32.225V.496h-8.473v2.073C20.868.856 17.442 0 13.296 0 5.949 0 1.487 4.101 1.487 9.78v.09c0 6.265 5.003 8.113 11.538 9.6 4.147.947 5.138 1.668 5.138 2.93v.09c0 1.307-1.217 2.073-3.47 2.073-3.516 0-6.896-1.262-9.916-3.65L.045 26.546c3.74 3.38 8.924 5.048 14.332 5.048 3.967 0 7.212-1.036 9.375-2.974v2.479h8.473V19.47h10.862V31.1h8.474V11.268L45.07.496zM23.752 15.279c-1.983-1.533-4.867-2.479-8.428-3.245-4.237-.947-5.273-1.578-5.273-2.975v-.09c0-1.082.991-1.983 3.064-1.983 2.705 0 5.77 1.037 8.564 3.02l2.073-2.975v8.248z"/>
  <path fill="#54c8e8" d="M69.408.496l-10.681 19.11v11.448h8.518V19.47l7.166-11.673v23.257h8.474V20.146h14.422v-7.03H82.885V7.931h20.191v23.122h8.473V7.932h9.195V.496z"/>
</svg>
