<svg viewBox="0 0 147 32" xmlns="http://www.w3.org/2000/svg">
  <path fill="#0a8c4f" d="M7.774 10.53c1.862 0 5.498.771 5.498 3.228v1.629h-1.863V14.29c0-1.332-2.246-1.954-3.606-1.954-3.25 0-5.734 2.37-5.734 5.982 0 3.701 2.631 6.011 5.823 6.011 2.897 0 4.612-1.836 4.878-2.043l.857 1.54c-.326.296-2.365 2.31-5.794 2.31-4.257 0-7.833-3.022-7.833-7.76 0-4.649 3.488-7.847 7.774-7.847zm22.372 7.73c0 4.5-3.517 7.877-7.862 7.877-4.316 0-7.833-3.376-7.833-7.878 0-4.412 3.517-7.729 7.833-7.729 4.345 0 7.862 3.317 7.862 7.73zm-2.07 0c0-3.376-2.6-5.923-5.792-5.923-3.163 0-5.764 2.547-5.764 5.922 0 3.465 2.601 6.071 5.764 6.071 3.192 0 5.793-2.606 5.793-6.07zm1.032-11.638V4.963h4.641v16.939c0 1.214.325 2.221 1.685 2.221.532 0 .827-.06.827-.06v1.718s-.56.089-1.152.089c-1.95 0-3.37-.978-3.37-3.82V6.622h-2.63zm6.089 0V4.963h4.64v16.939c0 1.214.326 2.221 1.686 2.221.531 0 .827-.06.827-.06v1.718s-.561.089-1.153.089c-1.95 0-3.37-.978-3.37-3.82V6.622h-2.63zm20.6 10.778c0 .356-.088.948-.088.948h-11.41c.089 3.82 2.69 5.982 5.764 5.982 2.72 0 4.523-1.776 4.523-1.776l.916 1.51s-2.129 2.072-5.498 2.072c-4.433 0-7.774-3.197-7.774-7.788 0-4.886 3.311-7.818 7.33-7.818 4.11 0 6.237 3.17 6.237 6.87zm-2.098-.532c-.119-3.14-2.01-4.65-4.198-4.65-2.482 0-4.64 1.629-5.113 4.65h9.31zm16.461 8.557c0 4.739-3.488 6.575-7.153 6.575-1.685 0-3.399-.445-4.847-1.185l.768-1.629s1.832 1.037 4.02 1.037c2.896 0 5.202-1.363 5.202-4.708v-1.48c0-.564.089-1.068.089-1.068h-.06c-.886 1.66-2.423 2.725-4.728 2.725-3.991 0-6.622-3.168-6.622-7.64 0-4.471 2.454-7.521 6.444-7.521 2.099 0 4.197.8 4.995 2.635h.06s-.06-.207-.06-.651c0-1.096.532-1.629 1.803-1.629v2.28l.09 12.26zm-1.98-7.373c0-4.353-2.07-5.715-4.7-5.715-2.897 0-4.582 2.132-4.582 5.686 0 3.583 1.922 5.863 4.848 5.863 2.365 0 4.434-1.45 4.434-5.834zm17.288-.652c0 .356-.088.948-.088.948H73.97c.089 3.82 2.69 5.982 5.764 5.982 2.72 0 4.523-1.776 4.523-1.776l.916 1.51s-2.128 2.072-5.498 2.072c-4.434 0-7.774-3.197-7.774-7.788 0-4.886 3.31-7.818 7.33-7.818 4.11 0 6.237 3.17 6.237 6.87zm-6.296-5.182c-2.482 0-4.64 1.629-5.113 4.65h9.31c-.118-3.14-2.01-4.65-4.197-4.65zm12.739-1.71l3.946 8.006 3.804-8.006h4.813l-8.81 16.927h-.191l-8.954-16.927h5.392zm12.804 0h4.814v16.493h-4.814V10.509zm11.649 0v2.123c1.058-1.784 2.84-2.556 5.15-2.556 3.658 0 6.209 2.556 6.209 6.944v9.982h-4.813v-9.645c0-1.832-.963-2.94-2.936-2.94-2.31 0-3.61 1.252-3.61 3.712V27h-4.814V10.509h4.814zm25.896 11.285l2.888 2.894c-1.492 1.59-3.658 2.748-7.075 2.748-5.729 0-9.386-3.665-9.386-8.68s3.899-8.68 8.904-8.68c5.776 0 9.05 4.58 8.664 10.32h-12.563c.482 1.832 1.878 2.99 4.284 2.99 2.118 0 3.37-.821 4.284-1.592zm-4.669-7.668c-1.974 0-3.37 1.013-3.85 2.894h7.46c-.337-1.688-1.54-2.894-3.61-2.894zM114.191 0s-1.332 9.237-8.588 8.731l3.781-4.79c-1.768.306-3.136 2.662-3.86 4.222C104.816 1.362 114.19 0 114.19 0zm-12.39 4.73c-.297 1.208.94 2.758 1.652 3.53-4.383-1.249-2.641-7.229-2.641-7.229s4.876 3.146 2.821 7.156l-1.832-3.456z"/>
</svg>
