<svg viewBox="0 0 106 32" xmlns="http://www.w3.org/2000/svg">
  <path fill="#5332a0" d="M18.078 25.558h-1.642v4.732a1.62 1.62 0 0 1-1.645 1.592H1.64A1.619 1.619 0 0 1 0 30.284V1.662h.01v-.047C.02.723.75.008 1.642.015h16.436c7.258 0 13.143 5.716 13.143 12.768 0 7.053-5.891 12.775-13.143 12.775zM50.93.015c9.072 0 16.415 7.131 16.415 15.931 0 8.8-7.353 15.93-16.415 15.93s-16.436-7.132-16.436-15.93S41.856.015 50.93.015zM105.143 30.868a1 1 0 0 1-1.016.982H66.865a.858.858 0 0 1-.13.025 1.008 1.008 0 0 1-1.02-.995.952.952 0 0 1 .207-.567l-.019-.036L84.405.785h.04a1 1 0 0 1 1.95 0h.042l18.702 29.69-.065.085c.04.098.063.202.069.308z"/>
</svg>
